<?xml version="1.0" encoding="utf-8"?>
<!-- Generator: Adobe Illustrator 16.0.0, SVG Export Plug-In . SVG Version: 6.00 Build 0)  -->
<!DOCTYPE svg PUBLIC "-//W3C//DTD SVG 1.1//EN" "http://www.w3.org/Graphics/SVG/1.1/DTD/svg11.dtd">
<svg version="1.1" id="Layer_1" xmlns="http://www.w3.org/2000/svg" xmlns:xlink="http://www.w3.org/1999/xlink" x="0px" y="0px"
	 width="117.733px" height="26.513px" viewBox="0 0 117.733 26.513" enable-background="new 0 0 117.733 26.513"
	 xml:space="preserve">
<path fill-rule="evenodd" clip-rule="evenodd" fill="none" d="M62.303,20.734c-0.056-0.009-0.073-0.028-0.071-0.074
	c0.003-0.101,0.02-0.195,0.106-0.263c0.011-0.009,0.011-0.042,0.006-0.059c-0.027-0.08-0.034-0.159,0.014-0.231
	c0.017-0.025,0.068-0.055,0.085-0.046c0.028,0.015,0.062,0.067,0.055,0.088c-0.043,0.112-0.007,0.204,0.047,0.298
	c0.023,0.039,0.027,0.076-0.023,0.108c-0.032,0.02-0.049,0.062-0.081,0.088C62.399,20.678,62.349,20.704,62.303,20.734z"/>
<path fill-rule="evenodd" clip-rule="evenodd" fill="none" d="M62.527,15.452c-0.002,0.088-0.062,0.141-0.151,0.14
	c-0.077-0.001-0.079-0.07-0.072-0.107c0.008-0.048,0.043-0.102,0.083-0.128C62.422,15.335,62.528,15.417,62.527,15.452z"/>
<path fill-rule="evenodd" clip-rule="evenodd" fill="none" d="M62.455,19.446c-0.035,0.024-0.054,0.048-0.067,0.044
	c-0.048-0.01-0.095-0.028-0.14-0.049c-0.006-0.003-0.005-0.045,0.003-0.05c0.033-0.017,0.074-0.043,0.104-0.035
	C62.388,19.363,62.413,19.405,62.455,19.446z"/>
<path fill-rule="evenodd" clip-rule="evenodd" fill="none" d="M62.056,18.379c-0.045-0.034-0.096-0.055-0.098-0.08
	c-0.004-0.048,0.037-0.085,0.089-0.075c0.033,0.007,0.062,0.037,0.093,0.056C62.114,18.309,62.09,18.339,62.056,18.379z"/>
<path fill-rule="evenodd" clip-rule="evenodd" fill="none" d="M62.524,17.132c-0.071-0.028-0.125-0.05-0.102-0.123
	c0.003-0.011,0.028-0.023,0.039-0.02C62.538,17.01,62.509,17.074,62.524,17.132z"/>
<path fill-rule="evenodd" clip-rule="evenodd" fill="#C43D47" d="M117.685,0c-0.031,0.058-0.057,0.123-0.095,0.175
	c-2.678,3.529-5.355,7.061-8.037,10.587c-0.137,0.179-0.152,0.284-0.007,0.476c2.549,3.344,5.087,6.696,7.631,10.04
	c0.157,0.205,0.136,0.434,0.21,0.648c0.007,0.016-0.037,0.07-0.064,0.073c-0.06,0.014-0.122,0.007-0.187,0.007
	c-2.51-0.003-5.021-0.01-7.528-0.007c-0.188,0-0.236-0.035-0.139-0.21c0.081-0.134,0.062-0.25-0.098-0.327
	c-0.087-0.041-0.16-0.121-0.248-0.147c-0.103-0.028-0.219-0.016-0.331-0.021c0.002,0.092-0.008,0.188,0.014,0.277
	c0.021,0.139,0.068,0.273,0.112,0.435c-0.544,0-1.068,0-1.601,0c-1.49,0-2.984,0-4.479,0c-1.101-0.003-2.196-0.012-3.297-0.007
	c-0.182,0-0.214-0.052-0.214-0.224c0.002-5.767,0-11.529,0.007-17.292c0-0.193-0.062-0.281-0.226-0.368
	c-1.408-0.746-2.815-1.504-4.226-2.258c-0.102-0.052-0.176-0.103-0.197-0.239c-0.023-0.176-0.135-0.192-0.265-0.074
	C94.4,1.568,94.319,1.55,94.278,1.529c-0.66-0.349-1.317-0.701-1.972-1.053c-0.251-0.133-0.496-0.268-0.744-0.441
	c0.07-0.003,0.141-0.01,0.207-0.01c0.727-0.001,1.451,0,2.178-0.001c0.074,0,0.151-0.016,0.225-0.024c1.043,0,2.089,0,3.13,0
	c0.046,0.296,0.046,0.296,0.357,0.296c0.008,0,0.014,0,0.021,0c0.325-0.007,0.3,0.065,0.3-0.296c5.623,0,11.248,0,16.868,0
	c0.047,0.1,0.092,0.198,0.136,0.297c0.084-0.04,0.18-0.067,0.25-0.123c0.039-0.031,0.027-0.115,0.039-0.174
	C116.078,0,116.878,0,117.685,0z M105.553,11.939c-0.302,0.022-0.376,0.108-0.298,0.386c0.05,0.217,0.12,0.431,0.159,0.652
	c0.025,0.15,0.091,0.198,0.237,0.182c0.146-0.016,0.266-0.058,0.277-0.224c0.002-0.096-0.016-0.195-0.043-0.287
	c-0.019-0.083-0.032-0.135,0.078-0.173c0.191-0.07,0.212-0.249,0.031-0.354C105.861,12.042,105.702,11.996,105.553,11.939z
	 M110.464,19.997c0,0.246-0.016,0.463,0.006,0.674c0.012,0.153,0.129,0.249,0.297,0.224c0.172-0.028,0.172-0.173,0.157-0.293
	C110.9,20.322,110.708,20.163,110.464,19.997z M102.009,2.548c0.101-0.001,0.311-0.257,0.239-0.356
	c-0.089-0.132-0.279-0.194-0.431-0.287c-0.054,0.096-0.144,0.187-0.152,0.286C101.642,2.405,101.794,2.551,102.009,2.548z
	 M99.852,5.476c-0.078,0.089-0.166,0.15-0.175,0.22c-0.03,0.233,0.122,0.38,0.36,0.387c0.101,0.003,0.315-0.269,0.25-0.365
	C100.208,5.606,100.032,5.568,99.852,5.476z M106.156,21.909c0.106-0.084,0.229-0.148,0.221-0.18
	c-0.03-0.119-0.073-0.268-0.167-0.333c-0.089-0.057-0.245-0.044-0.367-0.021c-0.045,0.006-0.108,0.172-0.091,0.192
	C105.868,21.688,106.005,21.786,106.156,21.909z M107.106,10.932c0.028,0,0.06,0.009,0.085,0c0.11-0.048,0.217-0.103,0.328-0.154
	c-0.052-0.07-0.1-0.141-0.148-0.21c-0.021-0.03-0.039-0.071-0.066-0.083c-0.079-0.03-0.189-0.093-0.237-0.062
	c-0.074,0.045-0.111,0.158-0.144,0.246C106.84,10.874,106.891,10.938,107.106,10.932z M99.764,10.791
	c-0.028,0.036-0.085,0.099-0.092,0.163c-0.016,0.206,0.109,0.349,0.283,0.343c0.125-0.007,0.243-0.035,0.245-0.198
	C100.203,10.916,100.051,10.788,99.764,10.791z M106.262,20.507c-0.1-0.015-0.171,0.011-0.166,0.151
	c0.004,0.195,0.129,0.375,0.285,0.348c0.095-0.016,0.224-0.102,0.247-0.185C106.677,20.646,106.508,20.514,106.262,20.507z
	 M106.195,0.7c0.286,0.002,0.482-0.13,0.432-0.292c-0.029-0.099-0.196-0.157-0.298-0.233c-0.078,0.13-0.159,0.255-0.217,0.393
	C106.098,0.602,106.176,0.673,106.195,0.7z M105.315,21.022c-0.253,0.003-0.414,0.17-0.394,0.4c0.006,0.041,0.035,0.098,0.067,0.107
	c0.188,0.062,0.461-0.136,0.477-0.333C105.471,21.077,105.44,21.003,105.315,21.022z M110.649,4.767
	c-0.089,0.013-0.169,0.02-0.24,0.043c-0.021,0.007-0.047,0.077-0.033,0.1c0.044,0.099,0.095,0.202,0.171,0.281
	c0.049,0.051,0.135,0.092,0.205,0.096c0.052,0,0.15-0.076,0.15-0.115c-0.002-0.118-0.034-0.242-0.08-0.354
	C110.805,4.779,110.702,4.779,110.649,4.767z M108.506,19.875c-0.177-0.003-0.308,0.118-0.292,0.262
	c0.024,0.204,0.253,0.081,0.34,0.191c0.062-0.06,0.173-0.118,0.177-0.186C108.745,19.987,108.642,19.891,108.506,19.875z
	 M102.045,15.467c-0.007-0.204-0.138-0.333-0.275-0.319c-0.166,0.017-0.262,0.125-0.25,0.282c0.004,0.063,0.113,0.171,0.161,0.165
	C101.816,15.579,101.937,15.509,102.045,15.467z M112.336,6.926c-0.134-0.073-0.216-0.13-0.312-0.163
	c-0.064-0.026-0.147-0.016-0.219-0.023c-0.005,0-0.009,0.026-0.011,0.036c-0.039,0.125-0.085,0.246-0.123,0.368
	c-0.005,0.021-0.012,0.063-0.003,0.07c0.017,0.017,0.054,0.019,0.077,0.013c0.123-0.047,0.253-0.099,0.374-0.153
	C112.185,7.042,112.235,6.998,112.336,6.926z M113.731,17.152c0.004-0.288-0.103-0.438-0.277-0.444
	c-0.042,0-0.098,0.026-0.116,0.054c-0.073,0.154,0.061,0.425,0.227,0.447C113.626,17.215,113.693,17.167,113.731,17.152z
	 M101.454,20.105c0.15,0.041,0.2-0.016,0.2-0.182c0-0.154-0.032-0.211-0.198-0.205c-0.139,0.007-0.216,0.016-0.209,0.191
	C101.252,20.058,101.271,20.146,101.454,20.105z M101.317,12.939c-0.095,0.112-0.187,0.169-0.196,0.236
	c-0.022,0.175,0.148,0.406,0.208,0.349c0.097-0.093,0.148-0.237,0.188-0.371C101.524,13.115,101.419,13.045,101.317,12.939z
	 M109.991,15.106c0.039-0.039,0.102-0.108,0.166-0.175c-0.127-0.071-0.248-0.147-0.382-0.202c-0.023-0.007-0.118,0.077-0.116,0.119
	C109.666,15.01,109.761,15.099,109.991,15.106z M106.495,2.065c0.019-0.016,0.032-0.029,0.048-0.043
	c-0.057-0.048-0.109-0.115-0.175-0.137c-0.072-0.025-0.276,0.215-0.244,0.298c0.014,0.043,0.115,0.065,0.186,0.08
	C106.46,2.292,106.536,2.234,106.495,2.065z M100.727,16.049c0-0.258-0.002-0.269-0.203-0.253c-0.063,0.004-0.166,0.055-0.173,0.1
	c-0.025,0.146,0.121,0.292,0.276,0.272C100.677,16.161,100.717,16.062,100.727,16.049z M106.646,13.07
	c0.096-0.103,0.165-0.175,0.236-0.25c-0.087-0.057-0.176-0.159-0.254-0.152c-0.083,0.006-0.156,0.12-0.236,0.184
	C106.464,12.917,106.541,12.978,106.646,13.07z M113.36,0.801c-0.016-0.159-0.031-0.267-0.208-0.231
	c-0.079,0.013-0.213-0.067-0.207,0.115c0.01,0.151,0.135,0.286,0.286,0.266C113.28,0.944,113.319,0.852,113.36,0.801z
	 M101.234,9.122c0.046-0.044,0.134-0.083,0.141-0.13c0.014-0.157-0.122-0.282-0.276-0.285c-0.183-0.004-0.095,0.134-0.106,0.214
	C100.953,9.11,101.08,9.1,101.234,9.122z M100.108,13.394c-0.016,0.351,0.233,0.579,0.619,0.626
	c-0.012-0.036-0.019-0.09-0.035-0.096C100.433,13.85,100.279,13.645,100.108,13.394z M114.719,19.121
	c0.073,0.102,0.123,0.167,0.176,0.23c0.051-0.076,0.146-0.15,0.151-0.226c0.008-0.067-0.095-0.144-0.146-0.214
	C114.848,18.97,114.794,19.032,114.719,19.121z M111.03,16.877c-0.123-0.074-0.201-0.15-0.257-0.138
	c-0.064,0.01-0.117,0.099-0.162,0.167c-0.002,0.007,0.076,0.106,0.109,0.099C110.805,16.988,110.885,16.94,111.03,16.877z
	 M103.119,15.486c0.021,0.026,0.032,0.048,0.046,0.074c0.106-0.067,0.21-0.13,0.312-0.201c0.007,0-0.025-0.08-0.05-0.087
	C103.235,15.214,103.192,15.371,103.119,15.486z"/>
<path fill-rule="evenodd" clip-rule="evenodd" fill="#224096" d="M23.492,0.028c0.805,0.003,1.608,0.008,2.41,0.013
	c0.074,0,0.149,0,0.23,0.033c-2.354,1.258-4.706,2.52-7.011,3.753c-0.099-0.068-0.166-0.13-0.242-0.163
	c-0.026-0.012-0.115,0.044-0.115,0.067c0.001,0.08,0.031,0.158,0.056,0.267c0.032-0.033,0.028-0.024,0.023-0.024
	c-0.421,0.116-0.478,0.408-0.478,0.812c0.014,5.651,0.008,11.302,0.015,16.952c0,0.212-0.057,0.25-0.255,0.25
	c-2.29-0.005-4.579,0-6.871,0.007c-0.137,0-0.247,0.005-0.261-0.18c-0.007-0.061-0.087-0.127-0.151-0.159
	c-0.154-0.078-0.244-0.023-0.229,0.145c0.013,0.167-0.044,0.203-0.198,0.194c-0.266-0.012-0.535-0.005-0.8-0.005
	c0-0.034-0.003-0.047,0.003-0.063c0.028-0.088,0.056-0.178,0.085-0.264c-0.096-0.01-0.192-0.037-0.284-0.028
	c-0.045,0.007-0.12,0.083-0.117,0.117c0.027,0.217-0.068,0.271-0.244,0.223c-0.018-0.071-0.034-0.141-0.051-0.205
	c-0.083,0.027-0.2,0.03-0.244,0.086c-0.073,0.101-0.147,0.127-0.262,0.127c-2.064,0-4.128,0.005-6.193,0.012
	c-0.113,0-0.195-0.005-0.222-0.148c-0.012-0.048-0.11-0.093-0.175-0.109c-0.021-0.002-0.063,0.096-0.101,0.146
	c-0.029,0.037-0.066,0.105-0.101,0.105C1.399,21.995,1.09,21.99,0.77,21.99c0.023-0.225,0.01-0.435-0.179-0.584
	c-0.013-0.012-0.017-0.055-0.008-0.071c0.261-0.379,0.49-0.789,0.809-1.118c0.161-0.167,0.256-0.349,0.384-0.522
	c1.337-1.795,2.695-3.572,4.049-5.356c0.804-1.061,1.605-2.118,2.414-3.177c0.092-0.118,0.091-0.196-0.003-0.319
	C6.123,8.064,4.013,5.283,1.903,2.5C1.885,2.473,1.867,2.445,1.839,2.407c0.064-0.024,0.135-0.03,0.17-0.07
	C2.057,2.286,2.109,2.204,2.1,2.144c-0.012-0.068-0.08-0.135-0.139-0.182c-0.039-0.028-0.115-0.036-0.164-0.02
	C1.542,2.025,1.419,1.879,1.285,1.696c-0.384-0.53-0.786-1.047-1.182-1.568C0.076,0.092,0.033,0.072,0,0.041
	c0.056-0.013,0.112-0.04,0.169-0.04C2.338,0,4.51,0,6.681,0c0.056,0.016,0.112,0.048,0.167,0.048c1.044,0.003,2.089,0.003,3.134,0
	c0.055,0,0.111-0.032,0.166-0.048c2.24,0,4.482,0,6.724,0c0.077,0.016,0.153,0.048,0.23,0.048c2.054,0.002,4.106,0.002,6.163,0
	C23.341,0.048,23.418,0.035,23.492,0.028z M8.971,21.704c0.129-0.084,0.27-0.157,0.389-0.253c0.086-0.07,0.135-0.191,0.224-0.246
	c0.141-0.089,0.13-0.192,0.066-0.301c-0.154-0.262-0.253-0.517-0.134-0.831c0.023-0.058-0.075-0.205-0.152-0.247
	c-0.049-0.021-0.19,0.058-0.237,0.128c-0.135,0.202-0.117,0.422-0.04,0.646c0.014,0.048,0.013,0.137-0.016,0.163
	c-0.243,0.188-0.288,0.451-0.296,0.732C8.769,21.626,8.816,21.679,8.971,21.704z M10.042,16.311c0.162-0.004,0.25-0.071,0.283-0.22
	c0.045-0.189,0.089-0.38,0.128-0.573c0.004-0.023-0.016-0.07-0.039-0.08c-0.181-0.077-0.357-0.172-0.547-0.207
	c-0.111-0.026-0.25,0.025-0.359,0.076c-0.044,0.023-0.038,0.144-0.061,0.218c-0.02,0.067-0.043,0.134-0.074,0.195
	c-0.15,0.304-0.132,0.336,0.174,0.421C9.713,16.187,9.877,16.254,10.042,16.311z M1.438,21.029c0.004,0.022,0.011,0.048,0.016,0.07
	c0.29-0.168,0.468-0.032,0.625,0.169c0.021,0.028,0.051,0.052,0.081,0.067c0.02,0.01,0.058,0.007,0.072-0.005
	c0.074-0.071,0.145-0.148,0.213-0.221c0.103-0.115,0.077-0.227-0.06-0.297c-0.056-0.028-0.111-0.058-0.158-0.099
	c-0.086-0.07-0.164-0.15-0.246-0.229c-0.075,0.08-0.146,0.159-0.222,0.235C1.654,20.824,1.545,20.924,1.438,21.029z M14.95,20.918
	c0,0.36,0.071,0.43,0.373,0.354c0.179-0.043,0.313-0.239,0.282-0.412c-0.036-0.207-0.224-0.323-0.473-0.32
	c-0.268,0.007-0.162,0.202-0.182,0.333C14.947,20.888,14.95,20.9,14.95,20.918z M3.979,20.306c0.062-0.054,0.195-0.117,0.192-0.171
	c-0.015-0.164-0.076-0.326-0.131-0.483c-0.014-0.035-0.089-0.086-0.122-0.076c-0.143,0.043-0.283,0.102-0.42,0.166
	c-0.134,0.064-0.189,0.217-0.096,0.291C3.553,20.15,3.757,20.205,3.979,20.306z M12.99,21.658c0.012-0.01,0.106-0.044,0.11-0.086
	c0.017-0.21-0.214-0.521-0.412-0.585c-0.19-0.056-0.277-0.006-0.308,0.189C12.34,21.461,12.553,21.646,12.99,21.658z M3.306,18.641
	c-0.028,0.032-0.148,0.1-0.151,0.17c-0.011,0.198,0.273,0.457,0.475,0.467c0.146,0.009,0.306-0.099,0.29-0.196
	C3.885,18.878,3.595,18.638,3.306,18.641z M9.598,6.971C9.599,6.875,9.305,6.646,9.21,6.706C9.098,6.78,9,6.93,8.977,7.064
	c-0.02,0.102-0.014,0.294,0.201,0.297C9.426,7.364,9.593,7.217,9.598,6.971z M12.197,20.718c-0.016-0.034-0.036-0.121-0.092-0.175
	c-0.039-0.041-0.165-0.067-0.185-0.044c-0.118,0.137-0.23,0.284-0.312,0.444c-0.033,0.063-0.016,0.191,0.03,0.249
	c0.035,0.044,0.154,0.054,0.226,0.039C12.042,21.196,12.198,20.963,12.197,20.718z M11.159,12.383
	c-0.002-0.193-0.128-0.336-0.296-0.34c-0.145-0.002-0.248,0.141-0.248,0.346c-0.002,0.196,0.123,0.342,0.293,0.346
	C11.045,12.737,11.16,12.574,11.159,12.383z M15.332,16.922c0.009,0.01,0.059,0.122,0.073,0.118
	c0.148-0.051,0.309-0.092,0.427-0.185c0.059-0.051,0.036-0.205,0.048-0.31c-0.091-0.009-0.186-0.036-0.273-0.023
	C15.414,16.545,15.343,16.682,15.332,16.922z M16.082,2.5c0.303,0.005,0.502-0.136,0.446-0.308c-0.033-0.104-0.203-0.168-0.31-0.251
	c-0.079,0.135-0.169,0.268-0.229,0.413C15.974,2.393,16.062,2.472,16.082,2.5z M10.405,9.452c0.227-0.009,0.343-0.128,0.342-0.287
	c-0.002-0.148-0.144-0.301-0.286-0.269c-0.186,0.044-0.125,0.249-0.184,0.373C10.259,9.312,10.372,9.41,10.405,9.452z M11.146,7.985
	c-0.14,0-0.258-0.026-0.359,0.007c-0.105,0.031-0.204,0.104-0.282,0.185c-0.034,0.035-0.031,0.141-0.004,0.192
	c0.02,0.035,0.115,0.041,0.174,0.035C10.909,8.374,11.047,8.23,11.146,7.985z M2.817,20.783c-0.087-0.157-0.155-0.311-0.252-0.448
	c-0.044-0.062-0.134-0.112-0.211-0.128c-0.03-0.002-0.126,0.132-0.113,0.164c0.058,0.128,0.131,0.255,0.231,0.347
	C2.573,20.805,2.71,20.875,2.817,20.783z M17.033,14.297c0,0.191,0.164,0.432,0.231,0.371c0.101-0.089,0.161-0.243,0.201-0.38
	c0.045-0.165-0.094-0.138-0.185-0.131C17.181,14.166,17.016,14.087,17.033,14.297z M9.397,18.111c-0.12-0.112-0.188-0.23-0.282-0.25
	c-0.084-0.021-0.199,0.052-0.29,0.099c-0.023,0.014-0.024,0.131-0.008,0.138c0.127,0.058,0.257,0.108,0.392,0.138
	C9.245,18.245,9.298,18.178,9.397,18.111z M9.918,17.091c0.064-0.045,0.174-0.083,0.184-0.142c0.029-0.163-0.127-0.297-0.298-0.306
	c-0.179-0.007-0.104,0.125-0.119,0.207C9.655,17.014,9.721,17.088,9.918,17.091z M8.259,15.535c0.046-0.182-0.043-0.204-0.199-0.211
	c-0.179-0.007-0.203,0.06-0.208,0.218c-0.005,0.175,0.058,0.201,0.214,0.204C8.237,15.748,8.302,15.701,8.259,15.535z
	 M10.795,13.786c-0.075-0.071-0.124-0.144-0.191-0.17c-0.104-0.041-0.215-0.054-0.328-0.071c-0.057-0.006-0.121,0.011-0.183,0.017
	c0.039,0.067,0.062,0.176,0.118,0.196c0.152,0.06,0.321,0.085,0.485,0.115C10.715,13.879,10.744,13.834,10.795,13.786z
	 M12.991,8.471c0-0.231,0-0.231-0.133-0.231c-0.103-0.002-0.303,0.225-0.264,0.333C12.61,8.62,12.724,8.65,12.8,8.666
	C12.983,8.707,13.017,8.602,12.991,8.471z M3.979,21.617c-0.112-0.096-0.192-0.167-0.27-0.237c-0.056,0.086-0.143,0.164-0.16,0.254
	c-0.032,0.146,0.079,0.26,0.21,0.251C3.824,21.883,3.882,21.738,3.979,21.617z M13.707,18.485c-0.122-0.112-0.205-0.185-0.29-0.262
	c-0.051,0.089-0.155,0.181-0.144,0.264c0.011,0.093,0.122,0.173,0.189,0.256C13.53,18.669,13.599,18.6,13.707,18.485z M12.054,7.636
	c0.001,0.124-0.039,0.258,0.152,0.237c0.083-0.011,0.29-0.233,0.26-0.32c-0.015-0.044-0.119-0.076-0.187-0.086
	C12.148,7.451,12.007,7.445,12.054,7.636z M8.282,15.134c0.096-0.111,0.163-0.195,0.233-0.274c-0.087-0.054-0.166-0.138-0.257-0.157
	c-0.145-0.029-0.261,0.074-0.249,0.208C8.013,14.982,8.156,15.039,8.282,15.134z M12.72,5.469c-0.003,0.301-0.003,0.31,0.176,0.297
	c0.08-0.006,0.229,0.09,0.225-0.111c-0.004-0.167-0.124-0.305-0.29-0.289C12.776,5.373,12.729,5.456,12.72,5.469z M2.279,21.77
	c0.229,0.043,0.297-0.072,0.294-0.191c-0.001-0.063-0.113-0.128-0.174-0.191c-0.064,0.1-0.136,0.198-0.19,0.303
	C2.2,21.71,2.281,21.77,2.279,21.77z M17.59,7.544c0.076-0.083,0.124-0.135,0.172-0.189c-0.081-0.057-0.157-0.141-0.248-0.167
	c-0.05-0.015-0.127,0.064-0.192,0.103C17.401,7.364,17.479,7.438,17.59,7.544z M14.323,8.071c0.069-0.096,0.149-0.189,0.143-0.195
	c-0.073-0.07-0.152-0.15-0.243-0.176c-0.047-0.013-0.124,0.078-0.187,0.119C14.116,7.893,14.199,7.962,14.323,8.071z M2.302,20.103
	c0.062-0.045,0.179-0.094,0.174-0.131c-0.008-0.138-0.118-0.189-0.253-0.192c-0.106-0.002-0.149,0.03-0.155,0.145
	C2.061,20.103,2.182,20.06,2.302,20.103z M11.039,14.751c0.072-0.086,0.113-0.131,0.155-0.179c-0.082-0.064-0.152-0.153-0.243-0.183
	c-0.051-0.016-0.133,0.07-0.2,0.109C10.835,14.572,10.918,14.646,11.039,14.751z M11.213,15.477
	c0.076,0.073,0.126,0.124,0.179,0.172c0.062-0.083,0.15-0.154,0.179-0.246c0.015-0.048-0.075-0.128-0.116-0.191
	C11.384,15.288,11.314,15.368,11.213,15.477z M10.184,20.668c-0.079-0.099-0.126-0.158-0.173-0.214
	c-0.059,0.089-0.136,0.172-0.171,0.268c-0.013,0.042,0.071,0.113,0.11,0.173C10.019,20.824,10.09,20.757,10.184,20.668z
	 M3.786,4.453c0.021-0.007,0.142-0.042,0.14-0.07C3.919,4.236,3.816,4.174,3.673,4.171C3.567,4.168,3.534,4.2,3.526,4.312
	C3.516,4.494,3.636,4.443,3.786,4.453z M13.589,21.934c0.032,0,0.066,0,0.099,0.002c0.032-0.057,0.079-0.107,0.091-0.168
	c0.03-0.114-0.044-0.164-0.14-0.135c-0.051,0.016-0.117,0.08-0.123,0.132C13.509,21.815,13.562,21.877,13.589,21.934z
	 M11.314,17.884c0-0.032-0.001-0.063-0.001-0.096c-0.056-0.032-0.115-0.09-0.166-0.083c-0.048,0.003-0.114,0.07-0.129,0.122
	c-0.024,0.088,0.002,0.178,0.125,0.149C11.203,17.96,11.258,17.916,11.314,17.884z M9.587,11.658
	c-0.042-0.163,0.038-0.343-0.174-0.396c-0.03-0.01-0.1,0.025-0.108,0.054C9.241,11.52,9.389,11.58,9.587,11.658z M7.921,9.663
	c-0.035,0-0.069-0.002-0.103-0.002C7.79,9.717,7.745,9.768,7.731,9.829C7.708,9.928,7.74,9.982,7.861,9.982
	c0.112,0,0.162-0.041,0.138-0.146C7.986,9.774,7.946,9.72,7.921,9.663z M18.011,8.682c-0.003-0.028-0.004-0.062-0.006-0.094
	c-0.055-0.028-0.109-0.069-0.169-0.085c-0.125-0.026-0.127,0.06-0.131,0.153C17.698,8.77,17.75,8.818,17.852,8.79
	C17.909,8.774,17.958,8.72,18.011,8.682z M11.448,16.442c0.001-0.028,0.003-0.061,0.003-0.092c-0.053-0.036-0.103-0.09-0.163-0.106
	c-0.102-0.029-0.153,0.02-0.148,0.134c0.003,0.096,0.012,0.179,0.133,0.15C11.334,16.516,11.39,16.474,11.448,16.442z M3.068,19.38
	c-0.033-0.003-0.067-0.007-0.099-0.007c-0.033,0.051-0.081,0.103-0.099,0.159c-0.027,0.106,0.026,0.147,0.138,0.145
	c0.092-0.003,0.151-0.02,0.128-0.125C3.123,19.492,3.091,19.434,3.068,19.38z M15.476,4.28c-0.046,0.115-0.1,0.182-0.091,0.245
	c0.003,0.042,0.085,0.1,0.138,0.106c0.033,0.006,0.114-0.087,0.105-0.112C15.608,4.446,15.547,4.386,15.476,4.28z M6.412,6.923
	C6.363,6.987,6.317,7.025,6.298,7.074c-0.005,0.013,0.078,0.09,0.098,0.083C6.452,7.132,6.499,7.081,6.55,7.042
	C6.51,7.01,6.473,6.975,6.412,6.923z"/>
<path fill-rule="evenodd" clip-rule="evenodd" fill="#C43D47" d="M23.492,0.028c-0.073,0.007-0.15,0.02-0.227,0.02
	c-2.056,0.002-4.108,0.002-6.163,0c-0.077,0-0.153-0.032-0.23-0.048c2.212,0,4.425,0,6.639,0v0.019L23.492,0.028z"/>
<path fill-rule="evenodd" clip-rule="evenodd" fill="none" d="M97.98,0c0,0.361,0.025,0.289-0.3,0.296c-0.008,0-0.014,0-0.021,0
	c-0.312,0-0.312,0-0.357-0.296C97.525,0,97.751,0,97.98,0z"/>
<path fill-rule="evenodd" clip-rule="evenodd" fill="#C43D47" d="M10.148,0c-0.055,0.016-0.111,0.048-0.166,0.048
	c-1.045,0.003-2.089,0.003-3.134,0C6.792,0.048,6.736,0.016,6.681,0C7.838,0,8.991,0,10.148,0z"/>
<path fill-rule="evenodd" clip-rule="evenodd" fill="none" d="M115.273,0c-0.012,0.059,0,0.143-0.039,0.174
	c-0.07,0.056-0.166,0.083-0.25,0.123C114.94,0.198,114.895,0.1,114.848,0C114.991,0,115.131,0,115.273,0z"/>
<path fill-rule="evenodd" clip-rule="evenodd" d="M90.555,26.508c-0.016-0.147-0.005-0.279-0.048-0.383
	c-0.032-0.085-0.135-0.11-0.181,0.022c-0.007,0.018-0.024,0.033-0.024,0.056c-0.014,0.326-0.24,0.311-0.48,0.309
	c-0.567-0.012-1.142-0.004-1.713-0.004c-0.075,0-0.185,0.028-0.15-0.122c0.004-0.007-0.073-0.045-0.105-0.039
	c-0.173,0.046-0.33,0.023-0.48-0.089c-0.116-0.091-0.216-0.061-0.273,0.08c-0.063,0.142-0.166,0.179-0.316,0.174
	c-0.339-0.014-0.674-0.014-1.014,0c-0.166,0.005-0.198-0.053-0.141-0.193c0.079-0.207,0.158-0.415,0.243-0.627
	c-0.319-0.063-0.684,0.087-0.825,0.456c-0.134,0.353-0.353,0.366-0.656,0.364c-2.521-0.007-5.047-0.004-7.568-0.004
	c-18.896,0-37.79,0-56.685,0.004c-0.213,0-0.275-0.043-0.275-0.27c0.007-6.703,0.007-13.406,0-20.108
	c0-0.193,0.031-0.253,0.244-0.253c15.07,0.003,30.136,0.003,45.206,0.007c0.087,0,0.168,0.053,0.255,0.071
	c0.062,0.013,0.125,0.016,0.189,0.005c0.152-0.023,0.303-0.076,0.453-0.076c1.599-0.003,3.2-0.003,4.797,0
	c0.142,0,0.278,0.041,0.415,0.057c0.15,0.02,0.31,0.103,0.448-0.047c0.03-0.029,0.11-0.013,0.164-0.013
	c8.542,0,17.085,0,25.625-0.003c0.159,0,0.196,0.039,0.196,0.195c-0.005,6.748-0.005,13.489-0.005,20.233
	c0,0.103,0.037,0.203-0.145,0.203C95.307,26.505,92.913,26.508,90.555,26.508z M89.576,25.129c0.092-0.003,0.182-0.003,0.272-0.017
	c0.037-0.002,0.097-0.038,0.097-0.06c0.011-0.124,0.004-0.252,0.002-0.377c0-0.022-0.048-0.064-0.058-0.057
	c-0.12,0.059-0.259,0.11-0.353,0.2c-0.104,0.1-0.044,0.221,0.043,0.314c-0.27-0.01-0.385,0.072-0.396,0.305
	c-0.007,0.091-0.068,0.221,0.115,0.234c0.156,0.01,0.259-0.041,0.268-0.212C89.576,25.35,89.573,25.241,89.576,25.129z
	 M88.377,24.312c0.025,0.515,0.205,0.703,0.651,0.688c0.103-0.004,0.154-0.021,0.147-0.138c-0.007-0.171-0.009-0.339,0-0.505
	c0.014-0.127-0.052-0.164-0.159-0.148c-0.214,0.033-0.428,0.072-0.642,0.109c0.072-0.284,0.143-0.562,0.209-0.845
	c0.016-0.065,0.007-0.139,0.009-0.209c-0.088,0.009-0.197-0.01-0.267,0.031c-0.171,0.103-0.32,0.232-0.474,0.355
	c-0.019,0.012-0.029,0.053-0.025,0.08c0.012,0.289,0.035,0.581,0.051,0.873c-0.022,0.008-0.044,0.018-0.071,0.027
	c-0.063-0.07-0.113-0.146-0.19-0.201c-0.062-0.048-0.146-0.064-0.217-0.094c-0.027,0.068-0.084,0.14-0.071,0.195
	c0.044,0.176,0.114,0.339,0.174,0.512c0.036,0.106,0.121,0.268,0.082,0.307c-0.114,0.118-0.28,0.191-0.431,0.278
	c-0.012,0.006-0.062-0.024-0.062-0.038c-0.007-0.027,0.019-0.058,0.029-0.088c0.035-0.104,0.099-0.214,0.099-0.321
	c0-0.068-0.094-0.138-0.142-0.205c-0.082,0.056-0.187,0.096-0.229,0.176c-0.051,0.083-0.044,0.203-0.051,0.308
	c-0.014,0.183-0.103,0.21-0.253,0.145c-0.041-0.02-0.132-0.033-0.137-0.016c-0.096,0.179-0.182,0.362-0.253,0.548
	c-0.016,0.036,0.035,0.126,0.075,0.147c0.114,0.049,0.237,0.065,0.35,0.112c0.129,0.055,0.218,0.084,0.257-0.099
	c0.05-0.243,0.229-0.384,0.456-0.458c0.197-0.062,0.407-0.104,0.609-0.154c0.242-0.051,0.275-0.095,0.194-0.337
	c-0.039-0.109-0.109-0.212-0.173-0.31c-0.058-0.094-0.128-0.183-0.222-0.312C88.044,24.733,88.202,24.506,88.377,24.312z
	 M71.984,22.252c0.127,0.048,0.314,0.055,0.371,0.144c0.098,0.162,0.153,0.369,0.16,0.561c0.007,0.175,0.056,0.216,0.211,0.195
	c0.051-0.007,0.101-0.007,0.149,0c0.152,0.025,0.196-0.075,0.168-0.187c-0.025-0.089-0.091-0.182-0.167-0.241
	c-0.064-0.06-0.17-0.063-0.249-0.109c-0.043-0.022-0.066-0.077-0.098-0.118c0.052-0.019,0.103-0.062,0.155-0.058
	c0.146,0.007,0.292,0.034,0.437,0.044c0.686,0.031,1.346-0.071,1.964-0.383c0.062-0.032,0.141-0.1,0.143-0.152
	c0.01-0.532,0.005-1.063,0.005-1.571c-0.337,0.083-0.649,0.198-0.973,0.237c-0.943,0.115-1.462-0.214-1.449-1.237
	c0.016-1.397,0.007-2.791,0-4.185c0-0.15,0.034-0.186,0.185-0.186c0.704,0.009,1.408,0.003,2.114,0.009
	c0.128,0,0.167-0.028,0.162-0.163c-0.009-0.479-0.012-0.959,0-1.438c0.004-0.144-0.032-0.184-0.18-0.182
	c-0.7,0.007-1.396-0.002-2.094,0.007c-0.147,0-0.187-0.028-0.187-0.182c0.009-0.719,0-1.439,0.009-2.155
	c0-0.14-0.041-0.172-0.175-0.172c-0.578,0.006-1.157,0.009-1.736,0c-0.141-0.003-0.17,0.041-0.17,0.175
	c0.009,0.704,0,1.41,0.011,2.113c0,0.169-0.028,0.236-0.215,0.221c-0.264-0.016-0.533,0-0.804-0.007
	c-0.107-0.002-0.141,0.029-0.139,0.141c0.005,0.499,0.005,1,0,1.502c-0.002,0.108,0.03,0.14,0.139,0.138
	c0.278-0.007,0.551,0.009,0.825-0.007c0.168-0.009,0.193,0.052,0.191,0.198c-0.009,0.736-0.005,1.467-0.005,2.199
	c0,0.429,0,0.86,0,1.285c-0.082,0-0.154-0.013-0.218,0.007c-0.043,0.013-0.071,0.073-0.107,0.115
	c0.073,0.044,0.14,0.127,0.214,0.131c0.119,0.008,0.111,0.07,0.111,0.15c0,0.293-0.009,0.591,0,0.888
	c0.037,0.95,0.296,1.778,1.222,2.245c0.009,0.007,0.015,0.023,0.022,0.034c-0.26-0.027-0.316,0.014-0.439,0.326
	c-0.021,0.059-0.032,0.116-0.045,0.173c0.073-0.003,0.168,0.022,0.216-0.014c0.084-0.063,0.148-0.159,0.198-0.251
	C71.957,22.426,71.961,22.337,71.984,22.252z M40.565,13.811c0.1-0.156,0.222-0.281,0.271-0.431c0.086-0.265,0.015-0.339-0.259-0.31
	c-0.042,0.007-0.091,0.058-0.114,0.099c-0.043,0.086-0.085,0.179-0.1,0.276c-0.031,0.169-0.081,0.169-0.224,0.085
	c-1.934-1.108-3.904-1.153-5.839-0.067c-2.912,1.64-3.286,5.649-0.771,7.813c1.968,1.69,5.159,1.71,7.151,0.048
	c1.934-1.614,2.327-4.335,0.923-6.403c-0.125-0.184-0.268-0.354-0.416-0.548c0.092,0,0.16,0.005,0.229-0.004
	c0.028-0.007,0.073-0.054,0.068-0.07c-0.049-0.138-0.084-0.285-0.169-0.393c-0.044-0.058-0.179-0.055-0.275-0.055
	c-0.015,0-0.03,0.123-0.044,0.186c-0.008,0.039-0.014,0.076-0.02,0.128C40.821,14.032,40.684,13.914,40.565,13.811z M27.027,16.049
	c0,2.021,0.004,4.043-0.002,6.067c-0.003,0.179,0.045,0.221,0.218,0.214c0.543-0.01,1.087-0.007,1.629,0
	c0.091,0.002,0.198,0.049,0.269,0.108c0.196,0.162,0.482,0.217,0.564,0.058c0.104-0.205,0.258-0.166,0.419-0.169
	c0.203-0.004,0.409-0.011,0.612,0.003c0.146,0.009,0.2-0.019,0.2-0.19c-0.007-4.065-0.004-8.131-0.002-12.198
	c0-0.156-0.04-0.199-0.196-0.197c-1.164,0.007-2.326,0.007-3.491-0.002c-0.196,0-0.223,0.063-0.223,0.235
	C27.031,12.002,27.027,14.025,27.027,16.049z M43.38,16.049c0,2.03,0.001,4.057-0.004,6.085c0,0.158,0.032,0.199,0.193,0.197
	c1.17-0.007,2.338-0.007,3.508,0c0.167,0.002,0.203-0.046,0.203-0.206c-0.004-4.059-0.004-8.116-0.001-12.175
	c0-0.157-0.03-0.206-0.201-0.206c-1.162,0.009-2.326,0.009-3.487,0c-0.179,0-0.215,0.047-0.215,0.219
	C43.381,11.993,43.38,14.02,43.38,16.049z M81.172,22.538c0.078,0,0.155,0.004,0.23,0c1.385-0.025,2.56-0.522,3.496-1.56
	c0.096-0.111,0.101-0.167-0.011-0.262c-0.326-0.272-0.641-0.554-0.953-0.839c-0.101-0.092-0.155-0.108-0.264,0
	c-0.786,0.749-1.71,1.079-2.797,0.931c-1.321-0.182-2.065-1.292-2.146-2.282c0.03,0,0.057-0.004,0.084-0.004
	c1.784,0,3.564,0,5.346,0c0.112,0,0.221,0.043,0.328,0.039c0.244-0.007,0.489-0.041,0.729-0.035
	c0.172,0.007,0.198-0.057,0.205-0.205c0.034-0.707-0.029-1.403-0.214-2.09c-0.608-2.228-2.531-3.48-4.813-3.135
	c-0.109,0.016-0.23-0.026-0.344-0.026c-0.076,0-0.196-0.057-0.198,0.103c0,0.022-0.042,0.055-0.068,0.063
	c-0.189,0.071-0.38,0.138-0.572,0.208c-0.018-0.263-0.125-0.329-0.355-0.221c-0.187,0.086-0.201,0.253-0.189,0.428
	c0.002,0.044,0.002,0.106-0.023,0.127c-0.287,0.25-0.583,0.493-0.895,0.755c0.025-0.23,0.045-0.447,0.073-0.685
	c-0.173,0-0.355,0.004-0.538-0.003c-0.111,0-0.211-0.006-0.228,0.144c-0.014,0.137,0.064,0.188,0.175,0.22
	c0.315,0.09,0.32,0.103,0.121,0.364c-0.114,0.154-0.164,0.294,0.014,0.441c0.021,0.014,0.017,0.077,0,0.105
	c-0.055,0.115-0.128,0.222-0.184,0.34c-0.378,0.754-0.556,1.553-0.554,2.399c0.005,2.344,1.467,4.129,3.765,4.597
	c0.048,0.009,0.089,0.072,0.119,0.119c0.08,0.12,0.127,0.271,0.23,0.357c0.144,0.123,0.341,0.125,0.487-0.003
	c0.15-0.125-0.007-0.25-0.06-0.364C81.17,22.56,81.172,22.551,81.172,22.538z M61.048,13.582c-0.08,0.047-0.121,0.074-0.164,0.097
	c-1.872,1.06-2.799,3.231-2.267,5.308c0.048,0.192,0.114,0.377,0.185,0.559c0.069,0.176,0.149,0.349,0.24,0.515
	c0.082,0.147,0.145,0.297,0.248,0.439c0.674,0.92,1.544,1.556,2.643,1.854c1.077,0.293,2.157,0.271,3.2-0.157
	c1.756-0.723,2.804-2.03,3.004-3.922c0.189-1.78-0.472-3.238-1.913-4.317c-0.105-0.08-0.096-0.142-0.084-0.252
	c0.012-0.119-0.023-0.267-0.093-0.359c-0.13-0.172-0.217-0.157-0.33,0.025c-0.094,0.151-0.18,0.175-0.355,0.099
	c-0.969-0.424-1.978-0.536-3.014-0.32c-0.387,0.082-0.763,0.214-1.118,0.316c-0.029-0.044-0.055-0.121-0.096-0.134
	c-0.189-0.058-0.217,0.112-0.304,0.233C60.901,13.569,60.956,13.576,61.048,13.582z M48.376,13.236
	c0.021,0.067,0.036,0.122,0.056,0.17c1.069,2.627,2.143,5.251,3.211,7.875c0.173,0.424,0.333,0.857,0.509,1.281
	c0.014,0.039,0.096,0.062,0.145,0.062c0.035,0,0.099-0.057,0.097-0.082c-0.015-0.146,0.072-0.139,0.17-0.139
	c0.417,0.005,0.833-0.002,1.246,0.005c0.117,0.002,0.177-0.03,0.217-0.142c0.126-0.326,0.262-0.652,0.394-0.975
	c0.206-0.506,0.411-1.006,0.625-1.53c0.076,0.117,0.13,0.214,0.199,0.299c0.09,0.109,0.058,0.189-0.04,0.265
	c-0.043,0.036-0.111,0.062-0.128,0.106c-0.024,0.071-0.043,0.205-0.014,0.221c0.07,0.037,0.222,0.056,0.245,0.021
	c0.087-0.141,0.177-0.301,0.195-0.463c0.02-0.183-0.031-0.374-0.062-0.56c-0.014-0.076-0.04-0.191-0.096-0.221
	c-0.149-0.073-0.107-0.152-0.063-0.262c0.697-1.704,1.386-3.408,2.079-5.111c0.108-0.267,0.215-0.536,0.33-0.821
	c-0.687,0-1.342,0.004-1.998-0.003c-0.135-0.002-0.193,0.039-0.238,0.167c-0.27,0.755-0.55,1.502-0.827,2.253
	c-0.284,0.777-0.572,1.557-0.862,2.331c-0.016,0.047-0.1,0.119-0.107,0.112c-0.131-0.086-0.205-0.013-0.251,0.093
	c-0.049,0.112-0.014,0.2,0.113,0.251c0.023,0.007,0.056,0.062,0.049,0.083c-0.167,0.46-0.338,0.918-0.524,1.417
	c-0.249-0.681-0.479-1.318-0.705-1.938c0.159,0.057,0.299,0.108,0.438,0.159c0.03-0.153,0.058-0.307,0.086-0.457
	c0.004-0.013-0.001-0.028-0.003-0.042c-0.001-0.152-0.041-0.319,0.006-0.457c0.06-0.189-0.027-0.253-0.161-0.313
	c-0.097-0.044-0.163-0.044-0.134,0.095c0.034,0.154-0.037,0.257-0.167,0.326c-0.09,0.049-0.168,0.109-0.258,0.166
	c-0.215-0.594-0.432-1.182-0.649-1.776c0.237-0.013,0.349-0.179,0.238-0.345c-0.03-0.048-0.112-0.062-0.172-0.091
	c-0.021,0.046-0.055,0.091-0.063,0.138c-0.008,0.061-0.001,0.128-0.001,0.188c-0.114-0.198-0.181-0.402-0.265-0.603
	c-0.071-0.17-0.06-0.358-0.182-0.521c-0.103-0.134-0.124-0.327-0.186-0.49c-0.09-0.243-0.115-0.579-0.292-0.703
	c-0.176-0.125-0.501-0.039-0.76-0.042c-0.008,0-0.015,0-0.022,0c-0.113,0.016-0.159-0.012-0.146-0.144
	c0.015-0.163-0.067-0.21-0.212-0.13c-0.063,0.035-0.095,0.115-0.152,0.166c-0.045,0.041-0.104,0.103-0.159,0.103
	C48.88,13.243,48.634,13.236,48.376,13.236z M88.792,18.858c-1.043,0-1.884,0.844-1.884,1.89c0,1.028,0.836,1.88,1.866,1.896
	c1.036,0.017,1.908-0.854,1.91-1.899C90.684,19.695,89.848,18.862,88.792,18.858z M93.32,13.354
	c-0.297,0.003-0.396,0.134-0.273,0.33c0.108,0.166,0.283,0.284,0.42,0.428c0.083,0.093,0.149,0.205,0.239,0.294
	c0.044,0.048,0.141,0.103,0.182,0.083c0.146-0.067,0.301-0.143,0.402-0.258c0.09-0.099,0.11-0.258,0.149-0.393
	c0.006-0.023-0.064-0.096-0.097-0.093c-0.307,0.042-0.537-0.105-0.775-0.268C93.48,13.415,93.37,13.38,93.32,13.354z M60.161,11.258
	c0.043-0.24,0.048-0.531,0.155-0.777c0.113-0.262-0.042-0.373-0.173-0.515c-0.04-0.044-0.127-0.057-0.191-0.057
	c-0.022,0.003-0.044,0.089-0.06,0.14c-0.071,0.195-0.133,0.396-0.205,0.591c-0.048,0.141-0.114,0.272-0.151,0.412
	c-0.054,0.202,0.025,0.269,0.229,0.234C59.889,11.265,60.017,11.267,60.161,11.258z M37.208,10.296c-0.078-0.01-0.156,0-0.172,0.157
	c-0.011,0.102-0.099,0.195-0.142,0.297c-0.043,0.115-0.08,0.235-0.108,0.354c-0.007,0.029,0.017,0.087,0.042,0.099
	c0.125,0.058,0.253,0.114,0.384,0.153c0.086,0.025,0.187,0.071,0.219-0.095c0.022-0.122,0.106-0.228,0.162-0.343
	c0.047-0.102,0.129-0.204,0.135-0.31C37.74,10.41,37.558,10.303,37.208,10.296z M27.026,24.294c-0.007,0-0.012,0.002-0.017,0.002
	c0.017,0.104,0.025,0.21,0.052,0.31c0.059,0.228,0.222,0.373,0.432,0.368c0.201-0.012,0.341-0.134,0.409-0.32
	c0.06-0.166,0.137-0.367-0.035-0.502c-0.196-0.152-0.328,0.016-0.461,0.146c-0.047,0.045-0.131,0.054-0.198,0.077
	c-0.004-0.062,0-0.12-0.012-0.183c-0.007-0.041-0.033-0.079-0.051-0.12c-0.04,0.032-0.091,0.057-0.117,0.095
	C27.011,24.201,27.026,24.25,27.026,24.294z M97.111,24.357c0.244,0,0.396-0.1,0.409-0.332c0.012-0.188-0.034-0.39-0.104-0.568
	c-0.052-0.138-0.122-0.357-0.358-0.168c-0.02,0.019-0.068,0.003-0.101,0.015c-0.06,0.009-0.11,0.027-0.166,0.043
	c0.032,0.059,0.042,0.147,0.088,0.171c0.224,0.111,0.206,0.253,0.083,0.423c-0.032,0.046-0.051,0.103-0.064,0.158
	C96.857,24.281,96.92,24.357,97.111,24.357z M81.473,20.025c0.002-0.009,0.002-0.016,0.004-0.025c0.084,0,0.168,0.007,0.255,0
	c0.032-0.003,0.077-0.029,0.088-0.054c0.069-0.164-0.02-0.352-0.189-0.367c-0.193-0.02-0.229-0.119-0.211-0.281
	c0.007-0.058,0.004-0.145-0.032-0.177c-0.126-0.108-0.474,0.022-0.451,0.189c0.027,0.217,0.114,0.437,0.219,0.636
	C81.19,20.009,81.364,20,81.473,20.025z M97.021,25.708c-0.026,0.02-0.052,0.036-0.077,0.052c0.029,0.054,0.062,0.151,0.089,0.151
	c0.142-0.006,0.289-0.008,0.409-0.062c0.064-0.03,0.104-0.152,0.128-0.24c0.002-0.019-0.101-0.062-0.149-0.106
	c-0.104-0.082-0.222-0.161-0.317-0.258c-0.082-0.083-0.136-0.194-0.212-0.286c-0.019-0.027-0.084-0.061-0.096-0.051
	c-0.165,0.136-0.321,0.273-0.472,0.42c-0.021,0.021,0.012,0.095,0.018,0.144c0.033-0.01,0.078-0.01,0.098-0.032
	c0.115-0.104,0.251-0.12,0.364-0.031C96.896,25.485,96.951,25.605,97.021,25.708z M95.66,11.98
	c-0.037-0.239-0.058-0.253-0.277-0.192c-0.213,0.061-0.351,0.202-0.441,0.39c-0.041,0.096-0.088,0.202-0.082,0.297
	c0,0.039,0.142,0.071,0.218,0.106c0.059,0.025,0.115,0.055,0.172,0.067c0.037,0.006,0.094-0.011,0.104-0.036
	C95.46,12.405,95.556,12.19,95.66,11.98z M58.447,24.579c-0.006-0.364-0.145-0.567-0.391-0.602
	c-0.045-0.007-0.131,0.027-0.141,0.057c-0.049,0.163-0.096,0.325-0.108,0.492c-0.014,0.145,0.003,0.33,0.2,0.33
	c0.137,0,0.283-0.075,0.411-0.14C58.454,24.699,58.445,24.59,58.447,24.579z M66.918,24.302c-0.019-0.029-0.107-0.18-0.125-0.17
	c-0.197,0.084-0.328-0.017-0.486-0.105c-0.1-0.055-0.241-0.032-0.367-0.043c0.062,0.111,0.112,0.23,0.187,0.328
	c0.101,0.127,0.221,0.235,0.335,0.355c0.018,0.019,0.045,0.047,0.07,0.047C66.723,24.726,66.917,24.551,66.918,24.302z
	 M32.258,10.95c0.352,0,0.404-0.08,0.264-0.409c-0.08-0.191-0.28-0.297-0.479-0.25c-0.208,0.048-0.098,0.217-0.104,0.329
	C31.924,10.95,31.934,10.95,32.258,10.95z M57.916,9.65c0.004,0.01,0.007,0.019,0.01,0.026c0.088-0.032,0.231-0.045,0.251-0.103
	c0.099-0.252-0.162-0.553-0.432-0.523c-0.184,0.016-0.346,0.198-0.337,0.39c0.012,0.189,0.184,0.159,0.3,0.194
	C57.773,9.657,57.845,9.646,57.916,9.65z M68.932,25.043c-0.104,0.177-0.173,0.298-0.244,0.416c-0.029,0.048-0.075,0.087-0.1,0.135
	c-0.052,0.104-0.059,0.189,0.105,0.183c0.17-0.007,0.339-0.01,0.506,0c0.15,0.009,0.187-0.078,0.125-0.175
	C69.206,25.406,69.059,25.223,68.932,25.043z M57.068,16.104c0.083,0.086,0.136,0.195,0.201,0.202
	c0.144,0.019,0.506-0.316,0.518-0.464c0.005-0.054-0.028-0.141-0.069-0.16c-0.104-0.048-0.284-0.128-0.323-0.087
	C57.267,15.729,57.186,15.911,57.068,16.104z M39.504,12.664c0.33,0,0.337-0.007,0.292-0.307c-0.007-0.053-0.026-0.105-0.035-0.163
	c-0.047-0.239-0.24-0.199-0.396-0.172c-0.04,0.006-0.06,0.156-0.081,0.243c-0.01,0.044,0.006,0.099-0.003,0.147
	C39.249,12.616,39.315,12.719,39.504,12.664z M57.456,23.421c0.075,0,0.155,0.002,0.231-0.005c0.024-0.002,0.071-0.048,0.067-0.063
	c-0.023-0.153-0.037-0.312-0.102-0.447c-0.029-0.063-0.196-0.13-0.244-0.1c-0.1,0.063-0.178,0.18-0.232,0.286
	c-0.04,0.085-0.044,0.189-0.03,0.283c0.005,0.025,0.131,0.032,0.203,0.041C57.383,23.423,57.42,23.421,57.456,23.421z
	 M80.455,26.174c0.319,0,0.319,0,0.319-0.191c0.002-0.269-0.089-0.445-0.226-0.443c-0.129,0-0.321,0.271-0.332,0.443
	C80.207,26.211,80.354,26.181,80.455,26.174z M66.751,12.78c-0.034-0.078-0.056-0.218-0.12-0.247
	c-0.167-0.064-0.472,0.124-0.522,0.301c-0.013,0.048,0.012,0.105,0.019,0.156c0.032-0.012,0.068-0.038,0.101-0.035
	c0.05,0.007,0.098,0.031,0.147,0.045c0.098,0.025,0.203,0.082,0.287,0.061C66.709,13.048,66.718,12.901,66.751,12.78z M20.098,25.22
	c0.084,0.075,0.167,0.151,0.254,0.219c0.183,0.155,0.322,0.114,0.39-0.106c0.015-0.047,0.052-0.092,0.052-0.134
	c0-0.054-0.016-0.134-0.052-0.155C20.54,24.929,20.268,25.011,20.098,25.22z M56.414,12.664c0.003-0.15-0.182-0.393-0.261-0.341
	c-0.135,0.082-0.244,0.223-0.328,0.36c-0.045,0.073,0.235,0.25,0.395,0.252C56.43,12.939,56.375,12.76,56.414,12.664z
	 M84.198,12.756c-0.027-0.191-0.226-0.048-0.349-0.07c-0.109-0.025-0.339,0.252-0.28,0.354c0.041,0.074,0.178,0.127,0.276,0.138
	C84.056,13.199,84.202,13.041,84.198,12.756z M28.107,25.514c0.084-0.016,0.128-0.021,0.166-0.032
	c0.151-0.06,0.242-0.171,0.192-0.325c-0.049-0.155-0.187-0.171-0.33-0.118c-0.06,0.018-0.118,0.04-0.178,0.059
	c-0.148,0.048-0.195,0.175-0.084,0.283C27.942,25.45,28.048,25.482,28.107,25.514z M73.027,24.871
	c0.009,0.264,0.13,0.397,0.294,0.394c0.157-0.004,0.194-0.119,0.205-0.239c0.011-0.143-0.258-0.452-0.345-0.396
	C73.093,24.686,73.057,24.825,73.027,24.871z M77.883,12.521c-0.043-0.045-0.125-0.137-0.207-0.228
	c-0.098,0.138-0.214,0.269-0.282,0.422c-0.016,0.036,0.125,0.191,0.213,0.211C77.747,12.958,77.886,12.773,77.883,12.521z
	 M56.912,21.182c-0.305,0.007-0.439,0.15-0.44,0.388c-0.002,0.118,0.044,0.164,0.162,0.159c0.243-0.007,0.391-0.152,0.369-0.398
	C56.999,21.269,56.932,21.212,56.912,21.182z M63.073,24c-0.063-0.188-0.148-0.296-0.286-0.308
	c-0.165-0.016-0.226,0.125-0.261,0.248c-0.031,0.116,0.151,0.3,0.263,0.261C62.898,24.166,62.984,24.066,63.073,24z M93.586,9
	c0.283,0.003,0.483-0.133,0.435-0.297c-0.031-0.099-0.19-0.159-0.296-0.239c-0.072,0.13-0.16,0.255-0.218,0.393
	C93.492,8.896,93.567,8.969,93.586,9z M74.772,8.071c-0.221,0.012-0.387,0.031-0.369,0.233c0.007,0.101-0.032,0.29,0.182,0.283
	c0.178-0.002,0.285-0.136,0.276-0.366C74.858,8.16,74.795,8.103,74.772,8.071z M96.688,26.141c-0.031-0.055-0.063-0.188-0.122-0.206
	c-0.13-0.038-0.454,0.265-0.393,0.333c0.087,0.093,0.232,0.159,0.36,0.173C96.746,26.466,96.627,26.278,96.688,26.141z
	 M30.877,8.963c0.004,0.15-0.064,0.33,0.193,0.293c0.099-0.016,0.212,0.029,0.203-0.146c-0.015-0.231-0.106-0.368-0.282-0.375
	C30.771,8.729,30.926,8.902,30.877,8.963z M96.09,21.706c-0.174-0.011-0.247,0.046-0.222,0.221c0.012,0.068-0.002,0.141,0.005,0.212
	c0.002,0.034,0.034,0.098,0.04,0.096c0.089-0.021,0.217-0.023,0.251-0.079c0.06-0.105,0.076-0.245,0.09-0.374
	C96.256,21.765,96.149,21.733,96.09,21.706z M89.273,18.571c0.279-0.002,0.413-0.112,0.425-0.291
	c0.005-0.128-0.062-0.179-0.18-0.182c-0.144-0.007-0.328,0.202-0.325,0.384C89.195,18.522,89.259,18.562,89.273,18.571z
	 M84.906,15.003c0.205,0.007,0.34-0.118,0.335-0.262c-0.002-0.175-0.139-0.083-0.219-0.103c-0.053-0.01-0.116,0.003-0.167-0.004
	c-0.173-0.015-0.182,0.09-0.125,0.196C84.776,14.911,84.867,14.969,84.906,15.003z M57.896,25.826
	c0.023,0.053,0.05,0.125,0.09,0.183c0.008,0.014,0.075,0.014,0.084,0c0.075-0.13,0.163-0.262,0.208-0.403
	c0.013-0.042-0.097-0.13-0.162-0.183c-0.011-0.003-0.105,0.064-0.13,0.117C57.944,25.619,57.928,25.712,57.896,25.826z
	 M58.986,23.092c-0.025,0.146,0.006,0.211,0.178,0.211c0.17-0.005,0.202-0.06,0.206-0.215c0.004-0.166-0.056-0.193-0.203-0.195
	C59,22.886,58.954,22.943,58.986,23.092z M87.796,22.776c-0.147-0.036-0.196,0.021-0.189,0.172c0.007,0.134-0.005,0.223,0.183,0.209
	c0.142-0.009,0.214-0.019,0.21-0.191C87.995,22.81,87.962,22.74,87.796,22.776z M48.695,8.876c0.201-0.032,0.376-0.039,0.399-0.23
	c0.004-0.042-0.138-0.134-0.221-0.147c-0.171-0.026-0.254,0.092-0.267,0.246C48.603,8.793,48.671,8.844,48.695,8.876z M41.177,9.975
	c0.094-0.088,0.193-0.14,0.206-0.208c0.03-0.157-0.152-0.408-0.202-0.357c-0.099,0.099-0.152,0.25-0.195,0.387
	C40.976,9.823,41.082,9.89,41.177,9.975z M62.115,23.092c0.036-0.151-0.021-0.202-0.182-0.199c-0.15,0.002-0.208,0.029-0.201,0.195
	c0.005,0.152,0.029,0.215,0.203,0.215C62.103,23.298,62.144,23.241,62.115,23.092z M85.261,22.876
	c0.01-0.195-0.062-0.255-0.222-0.23c-0.077,0.015-0.204-0.056-0.191,0.109c0.016,0.162,0.109,0.265,0.276,0.258
	C85.167,23.013,85.213,22.924,85.261,22.876z M97.062,18.894c-0.016,0.013-0.031,0.029-0.048,0.042
	c0.06,0.051,0.112,0.128,0.179,0.15c0.076,0.026,0.269-0.208,0.243-0.303c-0.01-0.039-0.104-0.071-0.167-0.08
	C97.135,18.68,97.008,18.689,97.062,18.894z M73.41,23.526c0.004,0.239,0.132,0.438,0.236,0.398
	c0.055-0.022,0.098-0.136,0.105-0.214c0.009-0.169-0.105-0.254-0.257-0.273C73.462,23.433,73.419,23.512,73.41,23.526z
	 M52.432,16.324c-0.027-0.15-0.002-0.287-0.198-0.246c-0.078,0.016-0.223-0.073-0.21,0.106c0.008,0.169,0.103,0.278,0.278,0.271
	C52.346,16.455,52.389,16.37,52.432,16.324z M76.991,13.141c-0.009,0.124-0.048,0.214-0.021,0.278
	c0.043,0.103,0.128,0.186,0.196,0.275c0.03-0.067,0.065-0.135,0.089-0.208c0.016-0.054,0.041-0.141,0.012-0.172
	C77.216,13.255,77.129,13.224,76.991,13.141z M92.429,13c-0.026,0-0.057,0-0.082,0c-0.048,0.066-0.151,0.166-0.134,0.199
	c0.05,0.092,0.147,0.165,0.227,0.246c0.048-0.055,0.138-0.115,0.132-0.157C92.546,13.185,92.479,13.096,92.429,13z M75.84,22.98
	c-0.112-0.101-0.185-0.183-0.278-0.235c-0.018-0.01-0.167,0.15-0.155,0.164c0.064,0.093,0.148,0.168,0.239,0.229
	C75.662,23.152,75.745,23.059,75.84,22.98z M95.773,26.334c0.173,0.007,0.253-0.037,0.226-0.207
	c-0.014-0.082,0.066-0.222-0.13-0.208c-0.203,0.01-0.17,0.199-0.256,0.296C95.666,26.258,95.724,26.297,95.773,26.334z
	 M58.065,11.817c-0.015,0.012-0.031,0.027-0.047,0.042c0.056,0.047,0.105,0.121,0.167,0.136c0.091,0.026,0.273-0.182,0.249-0.291
	c-0.008-0.039-0.116-0.067-0.183-0.083C58.103,11.594,58.019,11.642,58.065,11.817z M96.476,18.526c0.09-0.087,0.175-0.16,0.17-0.17
	c-0.066-0.101-0.151-0.198-0.227-0.294c-0.045,0.074-0.127,0.15-0.123,0.218C96.303,18.356,96.398,18.421,96.476,18.526z
	 M52.419,24.594c-0.154-0.037-0.271-0.062-0.389-0.092c0.009,0.119-0.024,0.311,0.035,0.342
	C52.251,24.952,52.304,24.749,52.419,24.594z M93.947,17.967c0.098-0.063,0.154-0.102,0.209-0.14
	c-0.081-0.065-0.152-0.148-0.246-0.18c-0.098-0.038-0.169,0.039-0.135,0.138C93.798,17.848,93.875,17.893,93.947,17.967z
	 M64.051,8.393c0.061,0.094,0.107,0.161,0.154,0.23c0.06-0.072,0.16-0.147,0.16-0.224c0-0.074-0.104-0.144-0.167-0.213
	C64.156,8.247,64.114,8.307,64.051,8.393z M70.166,23.468c0.11-0.052,0.221-0.079,0.219-0.109c-0.002-0.141-0.103-0.197-0.237-0.207
	c-0.104-0.007-0.173,0.039-0.137,0.144C70.032,23.359,70.109,23.408,70.166,23.468z M97.785,7.38
	c-0.073-0.102-0.112-0.16-0.157-0.214c-0.058,0.081-0.135,0.157-0.169,0.247c-0.017,0.034,0.062,0.108,0.094,0.163
	C97.62,7.518,97.692,7.458,97.785,7.38z M41.68,14.16c0.005,0.019,0.012,0.042,0.02,0.062c0.369,0.057,0.507,0.005,0.578-0.244
	C42.068,14.042,41.873,14.099,41.68,14.16z M64.23,25.499c-0.027-0.021-0.091-0.079-0.112-0.071
	c-0.093,0.055-0.184,0.122-0.254,0.201c-0.019,0.021,0.022,0.15,0.057,0.157C64.033,25.819,64.229,25.65,64.23,25.499z
	 M42.646,11.564c0.064,0.083,0.108,0.145,0.155,0.202c0.056-0.071,0.155-0.147,0.155-0.218c0-0.073-0.1-0.144-0.16-0.214
	C42.751,11.401,42.707,11.469,42.646,11.564z M47.625,14.297c-0.084,0.074-0.138,0.115-0.19,0.16
	c0.086,0.058,0.168,0.131,0.262,0.167c0.031,0.012,0.097-0.07,0.145-0.108C47.776,14.451,47.71,14.384,47.625,14.297z
	 M75.722,20.952c0.059-0.034,0.171-0.064,0.173-0.102c0.005-0.154-0.121-0.18-0.243-0.192c-0.089-0.005-0.128,0.031-0.133,0.134
	C75.51,20.959,75.615,20.924,75.722,20.952z M87.22,22.546c0.104-0.057,0.221-0.084,0.223-0.121
	c0.014-0.144-0.103-0.178-0.223-0.189c-0.103-0.005-0.176,0.022-0.142,0.134C87.099,22.435,87.164,22.48,87.22,22.546z
	 M68.228,25.28c0.064-0.033,0.18-0.063,0.182-0.099c0.002-0.146-0.111-0.182-0.241-0.19c-0.098-0.007-0.125,0.027-0.135,0.127
	C68.019,25.284,68.123,25.254,68.228,25.28z M89.635,13.066c0.062-0.069,0.105-0.099,0.122-0.14
	c0.021-0.055,0.044-0.128,0.021-0.173c-0.022-0.041-0.096-0.057-0.147-0.085c-0.012,0.053-0.044,0.108-0.041,0.163
	C89.589,12.895,89.612,12.962,89.635,13.066z M86.095,24.348c0.054-0.065,0.096-0.099,0.109-0.14
	c0.018-0.062,0.038-0.134,0.018-0.188c-0.009-0.036-0.087-0.05-0.134-0.08c-0.012,0.064-0.042,0.123-0.042,0.183
	C86.046,24.191,86.072,24.25,86.095,24.348z M62.312,25.374c-0.032,0-0.063-0.002-0.095-0.007c-0.032,0.053-0.075,0.095-0.089,0.149
	c-0.025,0.101,0.029,0.153,0.127,0.126c0.048-0.014,0.107-0.067,0.116-0.109C62.383,25.485,62.335,25.427,62.312,25.374z
	 M78.327,24.059c-0.031,0-0.063,0-0.098-0.003c-0.027,0.051-0.068,0.096-0.082,0.15c-0.02,0.09,0.011,0.137,0.119,0.13
	c0.093-0.002,0.155-0.016,0.132-0.122C78.385,24.161,78.353,24.112,78.327,24.059z M30.739,24.706
	c-0.029,0.002-0.06,0.002-0.089,0.004c-0.023,0.053-0.075,0.115-0.063,0.156c0.017,0.048,0.088,0.079,0.133,0.118
	c0.035-0.049,0.09-0.096,0.098-0.147C30.826,24.797,30.768,24.749,30.739,24.706z M42.894,12.415
	c0.031,0.006,0.064,0.006,0.097,0.009c0.032-0.047,0.091-0.101,0.084-0.144c-0.007-0.051-0.064-0.115-0.114-0.135
	c-0.084-0.028-0.152,0.013-0.131,0.116C42.841,12.316,42.872,12.364,42.894,12.415z M48.096,13.629c0-0.032,0-0.06,0-0.096
	c-0.051-0.024-0.107-0.079-0.15-0.072c-0.048,0.012-0.107,0.072-0.123,0.124c-0.032,0.094,0.026,0.143,0.122,0.122
	C47.998,13.694,48.045,13.659,48.096,13.629z M86.082,21.833c-0.035-0.002-0.066-0.002-0.096-0.005
	c-0.032,0.048-0.092,0.098-0.085,0.144c0.005,0.048,0.06,0.114,0.112,0.13c0.082,0.032,0.152-0.009,0.127-0.112
	C86.133,21.934,86.102,21.886,86.082,21.833z M72.069,23.835c0.027-0.003,0.056-0.003,0.086-0.003c0.027-0.044,0.079-0.1,0.07-0.134
	c-0.014-0.052-0.075-0.094-0.114-0.139c-0.042,0.043-0.111,0.077-0.123,0.128C71.978,23.726,72.037,23.786,72.069,23.835z
	 M60.909,26.462c0.033,0,0.064-0.003,0.097-0.005c0.021-0.053,0.049-0.103,0.061-0.154c0.021-0.105-0.045-0.145-0.13-0.115
	c-0.05,0.019-0.107,0.082-0.113,0.131C60.816,26.363,60.878,26.418,60.909,26.462z M79.116,12.098
	c-0.073-0.079-0.125-0.135-0.173-0.189c-0.039,0.054-0.095,0.106-0.102,0.166c-0.004,0.03,0.073,0.09,0.122,0.103
	C78.998,12.185,79.045,12.137,79.116,12.098z M79.868,23.89c-0.055-0.068-0.098-0.118-0.142-0.171
	c-0.039,0.037-0.114,0.087-0.105,0.103c0.03,0.071,0.086,0.132,0.135,0.196C79.788,23.984,79.817,23.947,79.868,23.89z M59.88,8.339
	c-0.031-0.038-0.053-0.066-0.079-0.099c-0.044,0.07-0.098,0.138-0.13,0.214c-0.008,0.026,0.038,0.078,0.056,0.115
	C59.776,8.493,59.826,8.419,59.88,8.339z M96.419,24.375c-0.004-0.027-0.006-0.058-0.008-0.087
	c-0.049-0.021-0.094-0.055-0.146-0.064c-0.1-0.021-0.154,0.031-0.122,0.124c0.016,0.048,0.078,0.104,0.122,0.107
	C96.312,24.46,96.367,24.405,96.419,24.375z M57.682,6.409c-0.001-0.029-0.001-0.057-0.004-0.086
	c-0.045-0.029-0.104-0.086-0.14-0.077c-0.052,0.013-0.109,0.074-0.125,0.125c-0.009,0.025,0.067,0.104,0.113,0.111
	C57.574,6.488,57.628,6.435,57.682,6.409z M57.555,25.374c-0.072-0.041-0.114-0.088-0.146-0.08
	c-0.044,0.009-0.081,0.055-0.123,0.082c0.026,0.032,0.058,0.093,0.075,0.091C57.419,25.453,57.468,25.419,57.555,25.374z
	 M74.751,23.138c-0.066-0.039-0.111-0.081-0.141-0.079c-0.05,0.009-0.086,0.057-0.13,0.093c0.029,0.032,0.064,0.089,0.084,0.087
	C74.622,23.225,74.671,23.184,74.751,23.138z M78.962,24.914c-0.003,0.029-0.008,0.057-0.013,0.082
	c0.073,0.012,0.147,0.022,0.22,0.036c-0.002-0.032,0-0.087-0.009-0.089C79.097,24.929,79.027,24.921,78.962,24.914z M40.229,6.025
	c-0.003,0.022-0.007,0.049-0.012,0.073c0.072,0.017,0.144,0.032,0.215,0.049c-0.005-0.036-0.004-0.103-0.017-0.105
	C40.356,6.025,40.29,6.028,40.229,6.025z"/>
<path fill-rule="evenodd" clip-rule="evenodd" fill="none" d="M105.553,11.939c0.148,0.057,0.308,0.103,0.442,0.182
	c0.181,0.105,0.16,0.284-0.031,0.354c-0.11,0.039-0.097,0.09-0.078,0.173c0.027,0.092,0.045,0.191,0.043,0.287
	c-0.012,0.166-0.132,0.208-0.277,0.224c-0.146,0.016-0.212-0.032-0.237-0.182c-0.039-0.221-0.109-0.436-0.159-0.652
	C105.177,12.047,105.251,11.961,105.553,11.939z"/>
<path fill-rule="evenodd" clip-rule="evenodd" fill="none" d="M110.464,19.997c0.244,0.166,0.436,0.325,0.46,0.604
	c0.015,0.121,0.015,0.266-0.157,0.293c-0.168,0.025-0.285-0.07-0.297-0.224C110.449,20.46,110.464,20.242,110.464,19.997z"/>
<path fill-rule="evenodd" clip-rule="evenodd" fill="none" d="M102.009,2.548c-0.215,0.003-0.367-0.143-0.344-0.357
	c0.009-0.099,0.099-0.19,0.152-0.286c0.151,0.092,0.342,0.155,0.431,0.287C102.32,2.292,102.11,2.547,102.009,2.548z"/>
<path fill-rule="evenodd" clip-rule="evenodd" fill="none" d="M99.852,5.476c0.18,0.092,0.355,0.131,0.436,0.242
	c0.065,0.096-0.149,0.368-0.25,0.365c-0.238-0.006-0.391-0.154-0.36-0.387C99.686,5.625,99.774,5.564,99.852,5.476z"/>
<path fill-rule="evenodd" clip-rule="evenodd" fill="none" d="M106.156,21.909c-0.15-0.123-0.288-0.221-0.404-0.342
	c-0.018-0.021,0.046-0.187,0.091-0.192c0.122-0.023,0.278-0.036,0.367,0.021c0.094,0.065,0.137,0.214,0.167,0.333
	C106.384,21.761,106.262,21.825,106.156,21.909z"/>
<path fill-rule="evenodd" clip-rule="evenodd" fill="none" d="M107.106,10.932c-0.215,0.006-0.266-0.058-0.183-0.263
	c0.032-0.088,0.069-0.201,0.144-0.246c0.048-0.031,0.158,0.032,0.237,0.062c0.027,0.012,0.045,0.053,0.066,0.083
	c0.049,0.069,0.097,0.14,0.148,0.21c-0.111,0.052-0.218,0.106-0.328,0.154C107.166,10.941,107.134,10.932,107.106,10.932z"/>
<path fill-rule="evenodd" clip-rule="evenodd" fill="none" d="M99.764,10.791c0.287-0.003,0.438,0.125,0.437,0.308
	c-0.002,0.163-0.12,0.191-0.245,0.198c-0.174,0.006-0.299-0.138-0.283-0.343C99.679,10.89,99.736,10.827,99.764,10.791z"/>
<path fill-rule="evenodd" clip-rule="evenodd" fill="none" d="M106.262,20.507c0.246,0.007,0.415,0.139,0.366,0.314
	c-0.023,0.083-0.152,0.169-0.247,0.185c-0.156,0.026-0.281-0.153-0.285-0.348C106.091,20.518,106.163,20.492,106.262,20.507z"/>
<path fill-rule="evenodd" clip-rule="evenodd" fill="none" d="M106.195,0.7c-0.019-0.027-0.097-0.098-0.083-0.133
	c0.058-0.138,0.139-0.263,0.217-0.393c0.102,0.076,0.269,0.134,0.298,0.233C106.677,0.57,106.481,0.703,106.195,0.7z"/>
<path fill-rule="evenodd" clip-rule="evenodd" fill="none" d="M105.315,21.022c0.125-0.019,0.156,0.055,0.15,0.175
	c-0.016,0.196-0.288,0.395-0.477,0.333c-0.032-0.009-0.062-0.067-0.067-0.107C104.901,21.192,105.062,21.026,105.315,21.022z"/>
<path fill-rule="evenodd" clip-rule="evenodd" fill="none" d="M110.649,4.767c0.053,0.013,0.156,0.013,0.173,0.05
	c0.046,0.112,0.078,0.236,0.08,0.354c0,0.039-0.099,0.115-0.15,0.115c-0.07-0.004-0.156-0.044-0.205-0.096
	c-0.076-0.08-0.127-0.182-0.171-0.281c-0.014-0.023,0.012-0.093,0.033-0.1C110.48,4.786,110.56,4.779,110.649,4.767z"/>
<path fill-rule="evenodd" clip-rule="evenodd" fill="none" d="M108.506,19.875c0.136,0.016,0.238,0.112,0.225,0.268
	c-0.004,0.068-0.114,0.126-0.177,0.186c-0.087-0.111-0.315,0.013-0.34-0.191C108.199,19.993,108.33,19.872,108.506,19.875z"/>
<path fill-rule="evenodd" clip-rule="evenodd" fill="none" d="M102.045,15.467c-0.108,0.042-0.229,0.111-0.364,0.127
	c-0.048,0.007-0.157-0.101-0.161-0.165c-0.012-0.157,0.084-0.265,0.25-0.282C101.908,15.134,102.039,15.263,102.045,15.467z"/>
<path fill-rule="evenodd" clip-rule="evenodd" fill="none" d="M112.336,6.926c-0.102,0.071-0.151,0.116-0.216,0.147
	C112,7.128,111.87,7.18,111.747,7.227c-0.023,0.006-0.061,0.004-0.077-0.013c-0.009-0.007-0.002-0.048,0.003-0.07
	c0.038-0.122,0.084-0.244,0.123-0.368c0.002-0.009,0.006-0.036,0.011-0.036c0.071,0.007,0.154-0.003,0.219,0.023
	C112.121,6.796,112.203,6.853,112.336,6.926z"/>
<path fill-rule="evenodd" clip-rule="evenodd" fill="none" d="M113.731,17.152c-0.038,0.016-0.104,0.063-0.167,0.057
	c-0.166-0.022-0.3-0.293-0.227-0.447c0.019-0.028,0.074-0.054,0.116-0.054C113.628,16.714,113.735,16.864,113.731,17.152z"/>
<path fill-rule="evenodd" clip-rule="evenodd" fill="none" d="M101.454,20.105c-0.183,0.041-0.201-0.048-0.207-0.196
	c-0.007-0.175,0.07-0.184,0.209-0.191c0.166-0.007,0.198,0.051,0.198,0.205C101.654,20.09,101.604,20.146,101.454,20.105z"/>
<path fill-rule="evenodd" clip-rule="evenodd" fill="none" d="M101.317,12.939c0.103,0.106,0.207,0.176,0.199,0.214
	c-0.039,0.134-0.091,0.278-0.188,0.371c-0.06,0.058-0.23-0.173-0.208-0.349C101.13,13.108,101.222,13.051,101.317,12.939z"/>
<path fill-rule="evenodd" clip-rule="evenodd" fill="none" d="M109.991,15.106c-0.229-0.007-0.325-0.096-0.332-0.258
	c-0.002-0.042,0.093-0.125,0.116-0.119c0.134,0.055,0.255,0.131,0.382,0.202C110.092,14.998,110.03,15.067,109.991,15.106z"/>
<path fill-rule="evenodd" clip-rule="evenodd" fill="none" d="M106.495,2.065c0.041,0.169-0.034,0.227-0.186,0.198
	c-0.07-0.015-0.172-0.036-0.186-0.08c-0.032-0.083,0.172-0.324,0.244-0.298c0.065,0.021,0.118,0.089,0.175,0.137
	C106.527,2.036,106.513,2.049,106.495,2.065z"/>
<path fill-rule="evenodd" clip-rule="evenodd" fill="none" d="M100.727,16.049c-0.01,0.013-0.05,0.112-0.1,0.119
	c-0.155,0.019-0.302-0.126-0.276-0.272c0.007-0.044,0.109-0.096,0.173-0.1C100.725,15.78,100.727,15.791,100.727,16.049z"/>
<path fill-rule="evenodd" clip-rule="evenodd" fill="none" d="M106.646,13.07c-0.105-0.092-0.182-0.153-0.254-0.218
	c0.08-0.064,0.153-0.178,0.236-0.184c0.078-0.007,0.167,0.096,0.254,0.152C106.811,12.895,106.742,12.967,106.646,13.07z"/>
<path fill-rule="evenodd" clip-rule="evenodd" fill="none" d="M113.36,0.801c-0.041,0.051-0.08,0.143-0.129,0.15
	c-0.151,0.02-0.276-0.115-0.286-0.266c-0.006-0.182,0.128-0.102,0.207-0.115C113.329,0.534,113.344,0.642,113.36,0.801z"/>
<path fill-rule="evenodd" clip-rule="evenodd" fill="none" d="M101.234,9.122c-0.154-0.022-0.281-0.012-0.242-0.201
	c0.012-0.081-0.076-0.218,0.106-0.214c0.154,0.003,0.29,0.127,0.276,0.285C101.368,9.039,101.28,9.078,101.234,9.122z"/>
<path fill-rule="evenodd" clip-rule="evenodd" fill="none" d="M100.108,13.394c0.171,0.251,0.325,0.456,0.584,0.53
	c0.017,0.005,0.023,0.06,0.035,0.096C100.341,13.972,100.092,13.744,100.108,13.394z"/>
<path fill-rule="evenodd" clip-rule="evenodd" fill="none" d="M114.719,19.121c0.075-0.088,0.129-0.15,0.182-0.21
	c0.051,0.07,0.153,0.147,0.146,0.214c-0.006,0.076-0.101,0.15-0.151,0.226C114.842,19.287,114.792,19.223,114.719,19.121z"/>
<path fill-rule="evenodd" clip-rule="evenodd" fill="none" d="M111.03,16.877c-0.145,0.063-0.225,0.111-0.31,0.128
	c-0.033,0.007-0.111-0.092-0.109-0.099c0.045-0.068,0.098-0.157,0.162-0.167C110.829,16.727,110.907,16.803,111.03,16.877z"/>
<path fill-rule="evenodd" clip-rule="evenodd" fill="none" d="M103.119,15.486c0.073-0.115,0.116-0.272,0.308-0.214
	c0.024,0.007,0.057,0.087,0.05,0.087c-0.102,0.07-0.205,0.134-0.312,0.201C103.151,15.535,103.139,15.513,103.119,15.486z"/>
<path fill-rule="evenodd" clip-rule="evenodd" fill="none" d="M10.042,16.311c-0.165-0.057-0.328-0.124-0.494-0.169
	c-0.307-0.085-0.325-0.118-0.174-0.421c0.031-0.061,0.055-0.128,0.074-0.195c0.022-0.074,0.017-0.195,0.061-0.218
	c0.109-0.051,0.248-0.103,0.359-0.076c0.189,0.035,0.366,0.13,0.547,0.207c0.022,0.01,0.043,0.057,0.039,0.08
	c-0.04,0.192-0.083,0.384-0.128,0.573C10.292,16.24,10.203,16.307,10.042,16.311z"/>
<path fill-rule="evenodd" clip-rule="evenodd" fill="none" d="M14.95,20.918c0-0.018-0.003-0.03,0-0.046
	c0.021-0.131-0.086-0.326,0.182-0.333c0.249-0.002,0.437,0.113,0.473,0.32c0.031,0.173-0.103,0.368-0.282,0.412
	C15.021,21.348,14.95,21.278,14.95,20.918z"/>
<path fill-rule="evenodd" clip-rule="evenodd" fill="none" d="M12.99,21.658c-0.438-0.012-0.65-0.197-0.61-0.482
	c0.031-0.195,0.118-0.246,0.308-0.189c0.198,0.064,0.428,0.375,0.412,0.585C13.096,21.614,13.002,21.648,12.99,21.658z"/>
<path fill-rule="evenodd" clip-rule="evenodd" fill="none" d="M12.197,20.718c0.001,0.245-0.156,0.478-0.333,0.513
	c-0.072,0.016-0.19,0.006-0.226-0.039c-0.046-0.058-0.063-0.186-0.03-0.249c0.082-0.16,0.194-0.307,0.312-0.444
	c0.02-0.023,0.146,0.003,0.185,0.044C12.161,20.597,12.181,20.685,12.197,20.718z"/>
<path fill-rule="evenodd" clip-rule="evenodd" fill="none" d="M11.159,12.383c0.001,0.191-0.114,0.354-0.251,0.352
	c-0.17-0.003-0.295-0.15-0.293-0.346c0-0.205,0.103-0.348,0.248-0.346C11.031,12.047,11.157,12.19,11.159,12.383z"/>
<path fill-rule="evenodd" clip-rule="evenodd" fill="none" d="M15.332,16.922c0.011-0.24,0.082-0.377,0.274-0.4
	c0.087-0.013,0.182,0.014,0.273,0.023c-0.013,0.105,0.01,0.258-0.048,0.31c-0.118,0.093-0.278,0.134-0.427,0.185
	C15.391,17.043,15.341,16.932,15.332,16.922z"/>
<path fill-rule="evenodd" clip-rule="evenodd" fill="none" d="M16.082,2.5c-0.021-0.028-0.108-0.107-0.093-0.146
	c0.06-0.145,0.151-0.277,0.229-0.413c0.107,0.083,0.277,0.146,0.31,0.251C16.584,2.363,16.385,2.504,16.082,2.5z"/>
<path fill-rule="evenodd" clip-rule="evenodd" fill="none" d="M10.405,9.452c-0.033-0.042-0.146-0.14-0.128-0.183
	c0.059-0.124-0.001-0.329,0.184-0.373c0.143-0.032,0.284,0.121,0.286,0.269C10.748,9.324,10.631,9.442,10.405,9.452z"/>
<path fill-rule="evenodd" clip-rule="evenodd" fill="none" d="M11.146,7.985c-0.099,0.246-0.237,0.389-0.471,0.419
	c-0.06,0.006-0.154,0-0.174-0.035c-0.027-0.052-0.03-0.158,0.004-0.192c0.078-0.08,0.177-0.153,0.282-0.185
	C10.889,7.958,11.007,7.985,11.146,7.985z"/>
<path fill-rule="evenodd" clip-rule="evenodd" fill="none" d="M17.033,14.297c-0.017-0.21,0.148-0.131,0.247-0.14
	c0.091-0.007,0.23-0.034,0.185,0.131c-0.04,0.137-0.1,0.291-0.201,0.38C17.197,14.729,17.033,14.489,17.033,14.297z"/>
<path fill-rule="evenodd" clip-rule="evenodd" fill="none" d="M9.918,17.091c-0.197-0.003-0.264-0.077-0.233-0.241
	c0.015-0.082-0.061-0.214,0.119-0.207c0.171,0.009,0.328,0.144,0.298,0.306C10.093,17.008,9.983,17.046,9.918,17.091z"/>
<path fill-rule="evenodd" clip-rule="evenodd" fill="none" d="M10.795,13.786c-0.051,0.048-0.08,0.093-0.099,0.087
	c-0.164-0.03-0.333-0.055-0.485-0.115c-0.056-0.02-0.079-0.129-0.118-0.196c0.062-0.006,0.125-0.022,0.183-0.017
	c0.113,0.017,0.224,0.03,0.328,0.071C10.672,13.643,10.72,13.715,10.795,13.786z"/>
<path fill-rule="evenodd" clip-rule="evenodd" fill="none" d="M12.991,8.471c0.026,0.131-0.008,0.236-0.191,0.195
	c-0.076-0.016-0.19-0.045-0.207-0.093c-0.039-0.108,0.162-0.335,0.264-0.333C12.991,8.24,12.991,8.24,12.991,8.471z"/>
<path fill-rule="evenodd" clip-rule="evenodd" fill="none" d="M13.707,18.485c-0.107,0.115-0.176,0.185-0.244,0.259
	c-0.068-0.083-0.179-0.163-0.189-0.256c-0.011-0.083,0.093-0.175,0.144-0.264C13.501,18.3,13.584,18.373,13.707,18.485z"/>
<path fill-rule="evenodd" clip-rule="evenodd" fill="none" d="M12.054,7.636c-0.047-0.191,0.094-0.186,0.225-0.17
	c0.067,0.01,0.172,0.042,0.187,0.086c0.03,0.087-0.177,0.31-0.26,0.32C12.015,7.895,12.055,7.76,12.054,7.636z"/>
<path fill-rule="evenodd" clip-rule="evenodd" fill="none" d="M12.72,5.469c0.009-0.013,0.056-0.096,0.111-0.103
	c0.167-0.016,0.286,0.122,0.29,0.289c0.005,0.202-0.145,0.105-0.225,0.111C12.717,5.779,12.717,5.77,12.72,5.469z"/>
<path fill-rule="evenodd" clip-rule="evenodd" fill="none" d="M17.59,7.544c-0.112-0.106-0.189-0.18-0.268-0.253
	c0.065-0.039,0.143-0.118,0.192-0.103c0.091,0.026,0.167,0.11,0.248,0.167C17.714,7.409,17.667,7.46,17.59,7.544z"/>
<path fill-rule="evenodd" clip-rule="evenodd" fill="none" d="M14.323,8.071c-0.124-0.109-0.207-0.179-0.287-0.252
	c0.062-0.042,0.139-0.132,0.187-0.119c0.091,0.026,0.17,0.106,0.243,0.176C14.472,7.882,14.392,7.976,14.323,8.071z"/>
<path fill-rule="evenodd" clip-rule="evenodd" fill="none" d="M11.039,14.751c-0.121-0.105-0.204-0.179-0.288-0.252
	c0.067-0.039,0.149-0.125,0.2-0.109c0.091,0.03,0.162,0.119,0.243,0.183C11.152,14.62,11.111,14.666,11.039,14.751z"/>
<path fill-rule="evenodd" clip-rule="evenodd" fill="none" d="M11.213,15.477c0.101-0.109,0.171-0.189,0.243-0.265
	c0.041,0.063,0.131,0.144,0.116,0.191c-0.029,0.092-0.117,0.163-0.179,0.246C11.339,15.601,11.29,15.55,11.213,15.477z"/>
<path fill-rule="evenodd" clip-rule="evenodd" fill="none" d="M10.184,20.668c-0.093,0.089-0.165,0.156-0.233,0.226
	c-0.04-0.06-0.123-0.13-0.11-0.173c0.035-0.095,0.112-0.179,0.171-0.268C10.058,20.511,10.105,20.569,10.184,20.668z"/>
<path fill-rule="evenodd" clip-rule="evenodd" fill="none" d="M13.589,21.934c-0.028-0.057-0.08-0.119-0.073-0.168
	c0.006-0.053,0.072-0.117,0.123-0.132c0.096-0.029,0.17,0.021,0.14,0.135c-0.013,0.061-0.059,0.112-0.091,0.168
	C13.655,21.934,13.622,21.934,13.589,21.934z"/>
<path fill-rule="evenodd" clip-rule="evenodd" fill="none" d="M11.314,17.884c-0.056,0.032-0.111,0.076-0.171,0.092
	c-0.124,0.029-0.15-0.061-0.125-0.149c0.015-0.052,0.081-0.119,0.129-0.122c0.051-0.007,0.11,0.051,0.166,0.083
	C11.312,17.82,11.314,17.852,11.314,17.884z"/>
<path fill-rule="evenodd" clip-rule="evenodd" fill="none" d="M18.011,8.682c-0.053,0.038-0.103,0.092-0.159,0.108
	c-0.102,0.029-0.154-0.02-0.147-0.134c0.004-0.093,0.006-0.179,0.131-0.153c0.06,0.017,0.114,0.058,0.169,0.085
	C18.007,8.62,18.008,8.653,18.011,8.682z"/>
<path fill-rule="evenodd" clip-rule="evenodd" fill="none" d="M11.448,16.442c-0.058,0.032-0.113,0.074-0.174,0.086
	c-0.121,0.028-0.129-0.055-0.133-0.15c-0.005-0.114,0.046-0.163,0.148-0.134c0.06,0.016,0.109,0.07,0.163,0.106
	C11.451,16.381,11.449,16.414,11.448,16.442z"/>
<path fill-rule="evenodd" clip-rule="evenodd" fill="none" d="M15.476,4.28c0.071,0.105,0.133,0.166,0.152,0.24
	c0.009,0.025-0.072,0.118-0.105,0.112c-0.052-0.007-0.134-0.064-0.138-0.106C15.376,4.462,15.43,4.395,15.476,4.28z"/>
<path fill-rule="evenodd" clip-rule="evenodd" fill="none" d="M40.565,13.811c0.119,0.103,0.255,0.221,0.413,0.353
	c0.006-0.052,0.011-0.089,0.02-0.128c0.014-0.063,0.029-0.186,0.044-0.186c0.096,0,0.23-0.003,0.275,0.055
	c0.085,0.108,0.121,0.255,0.169,0.393c0.005,0.016-0.041,0.063-0.068,0.07c-0.069,0.009-0.138,0.004-0.229,0.004
	c0.148,0.195,0.292,0.364,0.416,0.548c1.404,2.068,1.01,4.789-0.923,6.403c-1.992,1.663-5.183,1.642-7.151-0.048
	c-2.515-2.164-2.141-6.173,0.771-7.813c1.935-1.086,3.905-1.041,5.839,0.067c0.143,0.083,0.193,0.083,0.224-0.085
	c0.015-0.097,0.057-0.189,0.1-0.276c0.022-0.041,0.072-0.092,0.114-0.099c0.273-0.029,0.345,0.045,0.259,0.31
	C40.788,13.53,40.666,13.655,40.565,13.811z M38.697,17.586c-0.012-0.087-0.018-0.22-0.05-0.348c-0.145-0.623-0.507-1.07-1.136-1.24
	c-0.586-0.154-1.102,0.01-1.503,0.472c-0.547,0.625-0.531,1.692,0.021,2.312c0.516,0.579,1.357,0.7,1.968,0.271
	C38.485,18.711,38.684,18.216,38.697,17.586z"/>
<path fill-rule="evenodd" clip-rule="evenodd" fill="none" d="M27.027,16.049c0-2.024,0.004-4.046-0.002-6.07
	c0-0.172,0.026-0.235,0.223-0.235c1.165,0.009,2.327,0.009,3.491,0.002c0.156-0.002,0.196,0.042,0.196,0.197
	c-0.002,4.066-0.005,8.132,0.002,12.198c0,0.171-0.054,0.199-0.2,0.19c-0.204-0.014-0.41-0.007-0.612-0.003
	c-0.161,0.003-0.315-0.036-0.419,0.169c-0.082,0.159-0.368,0.104-0.564-0.058c-0.071-0.059-0.178-0.106-0.269-0.108
	c-0.542-0.007-1.086-0.01-1.629,0c-0.173,0.007-0.221-0.035-0.218-0.214C27.031,20.092,27.027,18.069,27.027,16.049z"/>
<path fill-rule="evenodd" clip-rule="evenodd" fill="none" d="M43.38,16.049c0-2.029,0.001-4.056-0.004-6.086
	c0-0.171,0.036-0.219,0.215-0.219c1.162,0.009,2.326,0.009,3.487,0c0.171,0,0.201,0.049,0.201,0.206
	c-0.003,4.06-0.003,8.116,0.001,12.175c0,0.16-0.036,0.208-0.203,0.206c-1.17-0.007-2.338-0.007-3.508,0
	c-0.162,0.002-0.193-0.039-0.193-0.197C43.381,20.105,43.38,18.079,43.38,16.049z"/>
<path fill-rule="evenodd" clip-rule="evenodd" fill="none" d="M81.172,22.538c0,0.014-0.002,0.022-0.002,0.029
	c0.053,0.114,0.209,0.239,0.06,0.364c-0.146,0.128-0.344,0.126-0.487,0.003c-0.103-0.087-0.15-0.237-0.23-0.357
	c-0.03-0.047-0.071-0.11-0.119-0.119c-2.298-0.467-3.76-2.252-3.765-4.597c-0.002-0.847,0.175-1.646,0.554-2.399
	c0.056-0.118,0.129-0.225,0.184-0.34c0.017-0.028,0.021-0.092,0-0.105c-0.177-0.147-0.128-0.287-0.014-0.441
	c0.199-0.262,0.194-0.274-0.121-0.364c-0.111-0.032-0.189-0.083-0.175-0.22c0.017-0.15,0.117-0.144,0.228-0.144
	c0.183,0.007,0.365,0.003,0.538,0.003c-0.027,0.237-0.048,0.455-0.073,0.685c0.312-0.262,0.608-0.505,0.895-0.755
	c0.025-0.021,0.025-0.083,0.023-0.127c-0.012-0.175,0.002-0.342,0.189-0.428c0.229-0.108,0.337-0.042,0.355,0.221
	c0.191-0.07,0.383-0.138,0.572-0.208c0.027-0.009,0.068-0.041,0.068-0.063c0.002-0.16,0.123-0.103,0.198-0.103
	c0.114,0,0.234,0.042,0.344,0.026c2.282-0.345,4.205,0.907,4.813,3.135c0.185,0.687,0.248,1.383,0.214,2.09
	c-0.007,0.147-0.033,0.211-0.205,0.205c-0.239-0.006-0.485,0.028-0.729,0.035c-0.107,0.004-0.216-0.039-0.328-0.039
	c-1.782,0-3.562,0-5.346,0c-0.027,0-0.054,0.004-0.084,0.004c0.08,0.991,0.824,2.1,2.146,2.282c1.087,0.147,2.012-0.182,2.797-0.931
	c0.109-0.108,0.164-0.092,0.264,0c0.312,0.285,0.626,0.567,0.953,0.839c0.111,0.095,0.106,0.15,0.011,0.262
	c-0.936,1.038-2.111,1.534-3.496,1.56C81.328,22.542,81.25,22.538,81.172,22.538z M81.018,17.148c0.717,0,1.436-0.006,2.153,0.004
	c0.178,0.003,0.229-0.048,0.178-0.215c-0.105-0.325-0.168-0.67-0.315-0.975c-0.69-1.447-2.48-1.515-3.398-0.715
	c-0.517,0.45-0.781,1.031-0.916,1.689c-0.034,0.167-0.018,0.218,0.166,0.215C79.594,17.142,80.307,17.148,81.018,17.148z"/>
<path fill-rule="evenodd" clip-rule="evenodd" fill="none" d="M61.048,13.582c-0.092-0.006-0.147-0.013-0.219-0.017
	c0.087-0.121,0.115-0.291,0.304-0.233c0.041,0.013,0.066,0.09,0.096,0.134c0.355-0.103,0.731-0.235,1.118-0.316
	c1.037-0.216,2.045-0.104,3.014,0.32c0.175,0.076,0.262,0.052,0.355-0.099c0.113-0.182,0.2-0.198,0.33-0.025
	c0.07,0.092,0.105,0.24,0.093,0.359c-0.011,0.111-0.021,0.172,0.084,0.252c1.441,1.079,2.102,2.537,1.913,4.317
	c-0.2,1.893-1.248,3.2-3.004,3.922c-1.043,0.428-2.123,0.45-3.2,0.157c-1.098-0.298-1.968-0.934-2.643-1.854
	c-0.104-0.142-0.167-0.292-0.248-0.439c-0.091-0.166-0.171-0.338-0.24-0.515c-0.071-0.182-0.137-0.367-0.185-0.559
	c-0.532-2.077,0.395-4.249,2.267-5.308C60.927,13.655,60.968,13.629,61.048,13.582z M62.098,20.454
	c0.032-0.083,0.044-0.148,0.076-0.202c0.039-0.063,0.091-0.122,0.137-0.179c0.066,0.076,0.138,0.147,0.187,0.23
	c0.029,0.051,0.034,0.13,0.016,0.184c-0.034,0.106,0.002,0.134,0.096,0.154c0.968,0.221,1.856,0.076,2.592-0.617
	c0.907-0.853,1.155-2.304,0.638-3.497c-0.79-1.81-3.172-2.259-4.51-0.837c-0.736,0.782-0.909,1.741-0.706,2.771
	C60.799,19.345,61.288,20.016,62.098,20.454z"/>
<path fill-rule="evenodd" clip-rule="evenodd" fill="none" d="M48.376,13.236c0.258,0,0.504,0.007,0.747-0.005
	c0.055,0,0.113-0.062,0.159-0.103c0.057-0.051,0.089-0.131,0.152-0.166c0.145-0.08,0.228-0.032,0.212,0.13
	c-0.013,0.131,0.034,0.16,0.146,0.144c0.007,0,0.014,0,0.022,0c0.258,0.004,0.583-0.083,0.76,0.042
	c0.177,0.124,0.202,0.46,0.292,0.703c0.062,0.163,0.083,0.355,0.186,0.49c0.122,0.163,0.111,0.351,0.182,0.521
	c0.083,0.201,0.151,0.405,0.265,0.603c0-0.06-0.007-0.127,0.001-0.188c0.008-0.047,0.042-0.092,0.063-0.138
	c0.06,0.028,0.142,0.042,0.172,0.091c0.11,0.166-0.001,0.332-0.238,0.345c0.218,0.594,0.435,1.182,0.649,1.776
	c0.09-0.056,0.168-0.117,0.258-0.166c0.13-0.069,0.201-0.172,0.167-0.326c-0.028-0.14,0.037-0.14,0.134-0.095
	c0.134,0.06,0.221,0.124,0.161,0.313c-0.047,0.138-0.007,0.304-0.006,0.457c0.002,0.014,0.007,0.03,0.003,0.042
	c-0.028,0.15-0.057,0.303-0.086,0.457c-0.139-0.051-0.279-0.103-0.438-0.159c0.226,0.619,0.457,1.256,0.705,1.938
	c0.186-0.499,0.356-0.957,0.524-1.417c0.007-0.021-0.025-0.076-0.049-0.083c-0.126-0.051-0.162-0.14-0.113-0.251
	c0.046-0.106,0.121-0.18,0.251-0.093c0.008,0.007,0.091-0.064,0.107-0.112c0.29-0.774,0.578-1.554,0.862-2.331
	c0.276-0.751,0.557-1.498,0.827-2.253c0.045-0.128,0.104-0.168,0.238-0.167c0.655,0.007,1.311,0.003,1.998,0.003
	c-0.115,0.285-0.222,0.554-0.33,0.821c-0.693,1.704-1.382,3.408-2.079,5.111c-0.043,0.109-0.085,0.189,0.063,0.262
	c0.056,0.03,0.082,0.146,0.096,0.221c0.031,0.186,0.082,0.377,0.062,0.56c-0.018,0.163-0.107,0.323-0.195,0.463
	c-0.023,0.035-0.174,0.015-0.245-0.021c-0.029-0.017-0.01-0.15,0.014-0.221c0.017-0.044,0.084-0.071,0.128-0.106
	c0.098-0.076,0.13-0.156,0.04-0.265c-0.069-0.085-0.123-0.183-0.199-0.299c-0.214,0.524-0.419,1.024-0.625,1.53
	c-0.131,0.323-0.268,0.649-0.394,0.975c-0.04,0.112-0.1,0.144-0.217,0.142c-0.413-0.007-0.829,0-1.246-0.005
	c-0.098,0-0.186-0.007-0.17,0.139c0.002,0.025-0.062,0.082-0.097,0.082c-0.049,0-0.131-0.022-0.145-0.062
	c-0.177-0.423-0.336-0.856-0.509-1.281c-1.069-2.624-2.142-5.248-3.211-7.875C48.412,13.357,48.396,13.303,48.376,13.236z"/>
<path fill-rule="evenodd" clip-rule="evenodd" fill="none" d="M71.988,22.259c-0.007-0.011-0.013-0.027-0.022-0.034
	c-0.925-0.467-1.185-1.294-1.222-2.245c-0.009-0.297,0-0.595,0-0.888c0-0.08,0.007-0.142-0.111-0.15
	c-0.075-0.004-0.141-0.087-0.214-0.131c0.037-0.042,0.064-0.103,0.107-0.115c0.064-0.02,0.137-0.007,0.218-0.007
	c0-0.425,0-0.856,0-1.285c0-0.732-0.004-1.463,0.005-2.199c0.002-0.146-0.022-0.208-0.191-0.198c-0.274,0.016-0.547,0-0.825,0.007
	c-0.109,0.002-0.141-0.029-0.139-0.138c0.005-0.502,0.005-1.003,0-1.502c-0.002-0.112,0.032-0.143,0.139-0.141
	c0.271,0.007,0.54-0.009,0.804,0.007c0.187,0.015,0.215-0.052,0.215-0.221c-0.011-0.703-0.002-1.409-0.011-2.113
	c0-0.135,0.029-0.179,0.17-0.175c0.579,0.009,1.158,0.006,1.736,0c0.135,0,0.175,0.032,0.175,0.172
	c-0.009,0.716,0,1.436-0.009,2.155c0,0.154,0.039,0.182,0.187,0.182c0.698-0.009,1.394,0,2.094-0.007
	c0.148-0.002,0.185,0.039,0.18,0.182c-0.012,0.479-0.009,0.958,0,1.438c0.004,0.135-0.034,0.163-0.162,0.163
	c-0.706-0.006-1.41,0-2.114-0.009c-0.15,0-0.185,0.035-0.185,0.186c0.007,1.394,0.016,2.787,0,4.185
	c-0.013,1.023,0.506,1.352,1.449,1.237c0.323-0.039,0.636-0.154,0.973-0.237c0,0.508,0.005,1.039-0.005,1.571
	c-0.002,0.052-0.082,0.12-0.143,0.152c-0.618,0.312-1.278,0.415-1.964,0.383c-0.145-0.01-0.292-0.037-0.437-0.044
	c-0.052-0.004-0.103,0.039-0.155,0.058c0.032,0.041,0.055,0.096,0.098,0.118c0.078,0.046,0.185,0.05,0.249,0.109
	c0.075,0.06,0.141,0.152,0.167,0.241c0.027,0.111-0.016,0.212-0.168,0.187c-0.048-0.007-0.098-0.007-0.149,0
	c-0.155,0.021-0.204-0.021-0.211-0.195c-0.007-0.191-0.062-0.398-0.16-0.561c-0.057-0.089-0.244-0.096-0.371-0.144L71.988,22.259z"
	/>
<path fill-rule="evenodd" clip-rule="evenodd" fill="none" d="M88.792,18.858c1.057,0.003,1.893,0.837,1.893,1.886
	c-0.002,1.045-0.874,1.916-1.91,1.899c-1.03-0.016-1.866-0.868-1.866-1.896C86.908,19.702,87.749,18.858,88.792,18.858z"/>
<path fill-rule="evenodd" clip-rule="evenodd" fill="none" d="M88.377,24.312c-0.176,0.194-0.333,0.421-0.675,0.414
	c0.094,0.13,0.164,0.219,0.222,0.312c0.063,0.098,0.134,0.2,0.173,0.31c0.081,0.242,0.048,0.286-0.194,0.337
	c-0.202,0.051-0.412,0.092-0.609,0.154c-0.227,0.074-0.406,0.215-0.456,0.458c-0.039,0.183-0.128,0.153-0.257,0.099
	c-0.112-0.047-0.235-0.063-0.35-0.112c-0.04-0.021-0.091-0.111-0.075-0.147c0.071-0.186,0.157-0.369,0.253-0.548
	c0.005-0.018,0.096-0.004,0.137,0.016c0.15,0.065,0.239,0.038,0.253-0.145c0.007-0.104,0-0.225,0.051-0.308
	c0.043-0.08,0.147-0.12,0.229-0.176c0.048,0.067,0.142,0.137,0.142,0.205c0,0.107-0.063,0.218-0.099,0.321
	c-0.011,0.03-0.036,0.061-0.029,0.088c0,0.014,0.05,0.044,0.062,0.038c0.15-0.087,0.316-0.16,0.431-0.278
	c0.039-0.039-0.046-0.2-0.082-0.307c-0.06-0.173-0.13-0.336-0.174-0.512c-0.013-0.056,0.044-0.127,0.071-0.195
	c0.07,0.029,0.155,0.046,0.217,0.094c0.077,0.056,0.127,0.131,0.19,0.201c0.027-0.01,0.049-0.02,0.071-0.027
	c-0.016-0.292-0.039-0.584-0.051-0.873c-0.004-0.027,0.007-0.068,0.025-0.08c0.153-0.123,0.303-0.253,0.474-0.355
	c0.069-0.041,0.179-0.022,0.267-0.031c-0.002,0.07,0.007,0.144-0.009,0.209c-0.066,0.283-0.137,0.561-0.209,0.845L88.377,24.312z"/>
<path fill-rule="evenodd" clip-rule="evenodd" fill="none" d="M93.32,13.354c0.05,0.025,0.16,0.061,0.247,0.122
	c0.238,0.163,0.469,0.31,0.775,0.268c0.032-0.003,0.103,0.07,0.097,0.093c-0.039,0.135-0.06,0.294-0.149,0.393
	c-0.102,0.115-0.257,0.191-0.402,0.258c-0.041,0.02-0.138-0.035-0.182-0.083c-0.09-0.089-0.156-0.201-0.239-0.294
	c-0.137-0.144-0.312-0.262-0.42-0.428C92.924,13.489,93.023,13.357,93.32,13.354z"/>
<path fill-rule="evenodd" clip-rule="evenodd" fill="none" d="M60.161,11.258c-0.145,0.009-0.272,0.007-0.396,0.029
	c-0.203,0.035-0.283-0.032-0.229-0.234c0.037-0.14,0.103-0.271,0.151-0.412c0.071-0.195,0.134-0.396,0.205-0.591
	c0.016-0.051,0.038-0.137,0.06-0.14c0.064,0,0.152,0.013,0.191,0.057c0.131,0.142,0.286,0.252,0.173,0.515
	C60.209,10.727,60.205,11.018,60.161,11.258z"/>
<path fill-rule="evenodd" clip-rule="evenodd" fill="none" d="M37.208,10.296c0.351,0.007,0.533,0.114,0.519,0.312
	c-0.006,0.106-0.088,0.208-0.135,0.31c-0.055,0.115-0.139,0.221-0.162,0.343c-0.032,0.166-0.133,0.121-0.219,0.095
	c-0.131-0.039-0.258-0.095-0.384-0.153c-0.024-0.012-0.048-0.07-0.042-0.099c0.029-0.119,0.065-0.239,0.108-0.354
	c0.042-0.103,0.13-0.196,0.142-0.297C37.051,10.296,37.13,10.286,37.208,10.296z"/>
<path fill-rule="evenodd" clip-rule="evenodd" fill="none" d="M27.026,24.294c0-0.045-0.015-0.094,0.003-0.127
	c0.025-0.038,0.077-0.062,0.117-0.095c0.018,0.041,0.044,0.079,0.051,0.12c0.012,0.062,0.008,0.121,0.012,0.183
	c0.067-0.023,0.151-0.032,0.198-0.077c0.134-0.131,0.266-0.299,0.461-0.146c0.171,0.135,0.094,0.336,0.035,0.502
	c-0.068,0.187-0.208,0.309-0.409,0.32c-0.21,0.005-0.374-0.141-0.432-0.368c-0.027-0.1-0.036-0.206-0.052-0.31
	C27.014,24.296,27.019,24.294,27.026,24.294z"/>
<path fill-rule="evenodd" clip-rule="evenodd" fill="none" d="M97.111,24.357c-0.19,0-0.254-0.076-0.213-0.259
	c0.014-0.056,0.032-0.112,0.064-0.158c0.123-0.17,0.141-0.312-0.083-0.423c-0.046-0.023-0.056-0.112-0.088-0.171
	c0.056-0.016,0.106-0.034,0.166-0.043c0.032-0.012,0.081,0.004,0.101-0.015c0.236-0.189,0.307,0.03,0.358,0.168
	c0.069,0.179,0.115,0.381,0.104,0.568C97.506,24.257,97.355,24.357,97.111,24.357z"/>
<path fill-rule="evenodd" clip-rule="evenodd" fill="none" d="M81.473,20.025c-0.109-0.025-0.283-0.016-0.316-0.079
	c-0.104-0.199-0.191-0.419-0.219-0.636c-0.023-0.167,0.325-0.297,0.451-0.189c0.036,0.032,0.039,0.119,0.032,0.177
	c-0.018,0.163,0.019,0.262,0.211,0.281c0.169,0.015,0.258,0.203,0.189,0.367c-0.011,0.025-0.056,0.051-0.088,0.054
	c-0.087,0.007-0.171,0-0.255,0C81.476,20.009,81.476,20.016,81.473,20.025z"/>
<path fill-rule="evenodd" clip-rule="evenodd" fill="none" d="M88.375,24.318c0.214-0.037,0.428-0.076,0.642-0.109
	c0.107-0.016,0.173,0.021,0.159,0.148c-0.009,0.166-0.007,0.334,0,0.505c0.007,0.117-0.045,0.134-0.147,0.138
	c-0.446,0.016-0.626-0.173-0.651-0.688L88.375,24.318z"/>
<path fill-rule="evenodd" clip-rule="evenodd" fill="none" d="M97.021,25.708c-0.07-0.104-0.125-0.224-0.218-0.301
	c-0.113-0.089-0.249-0.073-0.364,0.031c-0.02,0.022-0.064,0.022-0.098,0.032c-0.006-0.049-0.038-0.123-0.018-0.144
	c0.15-0.146,0.307-0.284,0.472-0.42c0.012-0.01,0.077,0.023,0.096,0.051c0.076,0.092,0.13,0.203,0.212,0.286
	c0.096,0.097,0.213,0.176,0.317,0.258c0.049,0.044,0.151,0.088,0.149,0.106c-0.024,0.088-0.063,0.21-0.128,0.24
	c-0.12,0.055-0.268,0.057-0.409,0.062c-0.026,0-0.06-0.098-0.089-0.151C96.969,25.745,96.995,25.728,97.021,25.708z"/>
<path fill-rule="evenodd" clip-rule="evenodd" fill="none" d="M95.66,11.98c-0.104,0.21-0.199,0.425-0.308,0.633
	c-0.01,0.025-0.066,0.042-0.104,0.036c-0.057-0.013-0.113-0.042-0.172-0.067c-0.076-0.035-0.218-0.067-0.218-0.106
	c-0.006-0.096,0.041-0.202,0.082-0.297c0.091-0.188,0.229-0.329,0.441-0.39C95.602,11.727,95.623,11.741,95.66,11.98z"/>
<path fill-rule="evenodd" clip-rule="evenodd" fill="none" d="M58.447,24.579c-0.002,0.012,0.007,0.12-0.03,0.138
	c-0.128,0.064-0.273,0.14-0.411,0.14c-0.197,0-0.213-0.186-0.2-0.33c0.013-0.167,0.059-0.329,0.108-0.492
	c0.01-0.029,0.096-0.063,0.141-0.057C58.303,24.011,58.441,24.214,58.447,24.579z"/>
<path fill-rule="evenodd" clip-rule="evenodd" fill="none" d="M66.918,24.302c-0.002,0.249-0.196,0.424-0.385,0.412
	c-0.025,0-0.053-0.028-0.07-0.047c-0.114-0.12-0.235-0.229-0.335-0.355c-0.075-0.098-0.125-0.217-0.187-0.328
	c0.126,0.011,0.267-0.012,0.367,0.043c0.158,0.089,0.289,0.189,0.486,0.105C66.812,24.123,66.9,24.273,66.918,24.302z"/>
<path fill-rule="evenodd" clip-rule="evenodd" fill="none" d="M32.258,10.95c-0.324,0-0.333,0-0.319-0.329
	c0.006-0.112-0.104-0.281,0.104-0.329c0.199-0.048,0.4,0.058,0.479,0.25C32.662,10.87,32.609,10.95,32.258,10.95z"/>
<path fill-rule="evenodd" clip-rule="evenodd" fill="none" d="M57.916,9.65c-0.071-0.003-0.143,0.007-0.207-0.016
	c-0.116-0.036-0.288-0.005-0.3-0.194c-0.009-0.192,0.153-0.374,0.337-0.39c0.27-0.029,0.53,0.271,0.432,0.523
	c-0.021,0.058-0.164,0.071-0.251,0.103C57.922,9.669,57.919,9.66,57.916,9.65z"/>
<path fill-rule="evenodd" clip-rule="evenodd" fill="none" d="M68.932,25.043c0.127,0.18,0.273,0.362,0.391,0.559
	c0.062,0.097,0.025,0.184-0.125,0.175c-0.167-0.01-0.335-0.007-0.506,0c-0.164,0.007-0.157-0.078-0.105-0.183
	c0.025-0.048,0.071-0.087,0.1-0.135C68.759,25.341,68.828,25.22,68.932,25.043z"/>
<path fill-rule="evenodd" clip-rule="evenodd" fill="none" d="M57.068,16.104c0.117-0.193,0.198-0.375,0.328-0.509
	c0.039-0.041,0.219,0.039,0.323,0.087c0.041,0.02,0.074,0.106,0.069,0.16c-0.012,0.147-0.375,0.482-0.518,0.464
	C57.205,16.298,57.151,16.19,57.068,16.104z"/>
<path fill-rule="evenodd" clip-rule="evenodd" fill="none" d="M39.504,12.664c-0.189,0.055-0.256-0.048-0.222-0.252
	c0.009-0.048-0.007-0.103,0.003-0.147c0.021-0.087,0.042-0.237,0.081-0.243c0.155-0.026,0.348-0.067,0.396,0.172
	c0.009,0.058,0.028,0.109,0.035,0.163C39.841,12.657,39.834,12.664,39.504,12.664z"/>
<path fill-rule="evenodd" clip-rule="evenodd" fill="none" d="M57.456,23.421c-0.035,0-0.072,0.002-0.107-0.005
	c-0.072-0.009-0.198-0.016-0.203-0.041c-0.015-0.094-0.01-0.198,0.03-0.283c0.055-0.106,0.133-0.223,0.232-0.286
	c0.048-0.03,0.215,0.036,0.244,0.1c0.064,0.135,0.078,0.294,0.102,0.447c0.004,0.016-0.043,0.062-0.067,0.063
	C57.61,23.423,57.531,23.421,57.456,23.421z"/>
<path fill-rule="evenodd" clip-rule="evenodd" fill="none" d="M80.455,26.174c-0.101,0.007-0.249,0.037-0.239-0.191
	c0.011-0.173,0.203-0.443,0.332-0.443c0.137-0.002,0.228,0.175,0.226,0.443C80.774,26.174,80.774,26.174,80.455,26.174z"/>
<path fill-rule="evenodd" clip-rule="evenodd" fill="none" d="M66.751,12.78c-0.034,0.122-0.042,0.268-0.088,0.281
	c-0.084,0.021-0.189-0.035-0.287-0.061c-0.05-0.014-0.098-0.038-0.147-0.045c-0.032-0.003-0.069,0.022-0.101,0.035
	c-0.007-0.051-0.032-0.108-0.019-0.156c0.05-0.177,0.356-0.365,0.522-0.301C66.695,12.562,66.718,12.702,66.751,12.78z"/>
<path fill-rule="evenodd" clip-rule="evenodd" fill="none" d="M20.098,25.22c0.17-0.209,0.442-0.291,0.644-0.177
	c0.037,0.021,0.052,0.102,0.052,0.155c0,0.042-0.037,0.087-0.052,0.134c-0.068,0.221-0.207,0.262-0.39,0.106
	C20.265,25.372,20.182,25.295,20.098,25.22z"/>
<path fill-rule="evenodd" clip-rule="evenodd" fill="none" d="M56.414,12.664c-0.04,0.096,0.016,0.275-0.194,0.271
	c-0.159-0.002-0.44-0.179-0.395-0.252c0.084-0.138,0.193-0.279,0.328-0.36C56.232,12.271,56.417,12.514,56.414,12.664z"/>
<path fill-rule="evenodd" clip-rule="evenodd" fill="none" d="M84.198,12.756c0.004,0.285-0.142,0.442-0.354,0.423
	c-0.098-0.011-0.235-0.064-0.276-0.138c-0.059-0.102,0.171-0.38,0.28-0.354C83.972,12.708,84.17,12.565,84.198,12.756z"/>
<path fill-rule="evenodd" clip-rule="evenodd" fill="none" d="M28.107,25.514c-0.06-0.032-0.165-0.064-0.234-0.134
	c-0.111-0.108-0.064-0.235,0.084-0.283c0.06-0.019,0.118-0.041,0.178-0.059c0.143-0.053,0.281-0.037,0.33,0.118
	c0.05,0.154-0.041,0.266-0.192,0.325C28.235,25.494,28.192,25.499,28.107,25.514z"/>
<path fill-rule="evenodd" clip-rule="evenodd" fill="none" d="M73.027,24.871c0.03-0.046,0.066-0.185,0.154-0.242
	c0.087-0.056,0.356,0.254,0.345,0.396c-0.011,0.12-0.048,0.235-0.205,0.239C73.157,25.268,73.037,25.134,73.027,24.871z"/>
<path fill-rule="evenodd" clip-rule="evenodd" fill="none" d="M77.883,12.521c0.002,0.252-0.136,0.438-0.276,0.406
	c-0.088-0.02-0.229-0.175-0.213-0.211c0.068-0.154,0.185-0.285,0.282-0.422C77.759,12.383,77.84,12.475,77.883,12.521z"/>
<path fill-rule="evenodd" clip-rule="evenodd" fill="none" d="M56.912,21.182c0.02,0.03,0.087,0.087,0.091,0.148
	c0.021,0.246-0.126,0.392-0.369,0.398c-0.118,0.004-0.164-0.041-0.162-0.159C56.473,21.332,56.607,21.188,56.912,21.182z"/>
<path fill-rule="evenodd" clip-rule="evenodd" fill="none" d="M63.073,24c-0.089,0.066-0.175,0.166-0.284,0.201
	c-0.112,0.039-0.294-0.145-0.263-0.261c0.035-0.123,0.096-0.264,0.261-0.248C62.925,23.704,63.01,23.811,63.073,24z"/>
<path fill-rule="evenodd" clip-rule="evenodd" fill="none" d="M93.586,9c-0.02-0.032-0.095-0.104-0.079-0.144
	c0.058-0.137,0.146-0.262,0.218-0.393c0.105,0.08,0.265,0.14,0.296,0.239C94.07,8.867,93.87,9.004,93.586,9z"/>
<path fill-rule="evenodd" clip-rule="evenodd" fill="none" d="M74.772,8.071c0.023,0.031,0.086,0.089,0.089,0.15
	c0.009,0.23-0.098,0.364-0.276,0.366c-0.214,0.007-0.175-0.182-0.182-0.283C74.385,8.103,74.551,8.083,74.772,8.071z"/>
<path fill-rule="evenodd" clip-rule="evenodd" fill="none" d="M96.688,26.141c-0.061,0.137,0.058,0.325-0.154,0.3
	c-0.128-0.014-0.273-0.08-0.36-0.173c-0.062-0.068,0.263-0.371,0.393-0.333C96.625,25.953,96.657,26.086,96.688,26.141z"/>
<path fill-rule="evenodd" clip-rule="evenodd" fill="none" d="M30.877,8.963c0.049-0.061-0.106-0.233,0.114-0.228
	c0.176,0.007,0.267,0.144,0.282,0.375c0.009,0.175-0.104,0.13-0.203,0.146C30.813,9.292,30.882,9.113,30.877,8.963z"/>
<path fill-rule="evenodd" clip-rule="evenodd" fill="none" d="M89.58,25.134c-0.087-0.094-0.147-0.215-0.043-0.314
	c0.094-0.09,0.232-0.142,0.353-0.2c0.01-0.008,0.058,0.034,0.058,0.057c0.002,0.125,0.009,0.253-0.002,0.377
	c0,0.021-0.06,0.058-0.097,0.06c-0.091,0.014-0.181,0.014-0.272,0.017L89.58,25.134z"/>
<path fill-rule="evenodd" clip-rule="evenodd" fill="none" d="M96.09,21.706c0.059,0.027,0.166,0.06,0.164,0.076
	c-0.014,0.129-0.03,0.269-0.09,0.374c-0.034,0.056-0.162,0.059-0.251,0.079c-0.006,0.002-0.038-0.062-0.04-0.096
	c-0.007-0.071,0.007-0.144-0.005-0.212C95.843,21.751,95.917,21.695,96.09,21.706z"/>
<path fill-rule="evenodd" clip-rule="evenodd" fill="none" d="M89.273,18.571c-0.014-0.009-0.078-0.048-0.08-0.089
	c-0.003-0.182,0.182-0.391,0.325-0.384c0.117,0.003,0.185,0.054,0.18,0.182C89.686,18.459,89.552,18.568,89.273,18.571z"/>
<path fill-rule="evenodd" clip-rule="evenodd" fill="none" d="M89.576,25.129c-0.003,0.111,0,0.221-0.01,0.332
	c-0.009,0.171-0.111,0.222-0.268,0.212c-0.184-0.014-0.122-0.144-0.115-0.234c0.012-0.232,0.127-0.314,0.396-0.305L89.576,25.129z"
	/>
<path fill-rule="evenodd" clip-rule="evenodd" fill="none" d="M84.906,15.003c-0.039-0.035-0.13-0.092-0.175-0.172
	c-0.057-0.106-0.048-0.211,0.125-0.196c0.05,0.007,0.114-0.006,0.167,0.004c0.08,0.02,0.217-0.073,0.219,0.103
	C85.246,14.885,85.111,15.01,84.906,15.003z"/>
<path fill-rule="evenodd" clip-rule="evenodd" fill="none" d="M71.984,22.252c-0.022,0.085-0.027,0.173-0.066,0.241
	c-0.049,0.092-0.113,0.188-0.198,0.251c-0.047,0.036-0.143,0.011-0.216,0.014c0.014-0.057,0.024-0.114,0.045-0.173
	c0.123-0.312,0.179-0.354,0.439-0.326L71.984,22.252z"/>
<path fill-rule="evenodd" clip-rule="evenodd" fill="none" d="M57.896,25.826c0.032-0.113,0.048-0.207,0.09-0.286
	c0.025-0.053,0.12-0.12,0.13-0.117c0.065,0.053,0.175,0.141,0.162,0.183c-0.045,0.142-0.134,0.273-0.208,0.403
	c-0.009,0.014-0.076,0.014-0.084,0C57.946,25.951,57.919,25.878,57.896,25.826z"/>
<path fill-rule="evenodd" clip-rule="evenodd" fill="none" d="M58.986,23.092c-0.032-0.149,0.015-0.206,0.181-0.199
	c0.147,0.002,0.207,0.029,0.203,0.195c-0.004,0.155-0.035,0.21-0.206,0.215C58.992,23.303,58.961,23.239,58.986,23.092z"/>
<path fill-rule="evenodd" clip-rule="evenodd" fill="none" d="M87.796,22.776c0.166-0.036,0.198,0.034,0.203,0.189
	c0.004,0.173-0.068,0.183-0.21,0.191c-0.188,0.014-0.176-0.075-0.183-0.209C87.6,22.797,87.649,22.74,87.796,22.776z"/>
<path fill-rule="evenodd" clip-rule="evenodd" fill="none" d="M48.695,8.876c-0.023-0.032-0.092-0.083-0.088-0.131
	c0.013-0.154,0.095-0.272,0.267-0.246c0.083,0.013,0.226,0.105,0.221,0.147C49.071,8.838,48.896,8.844,48.695,8.876z"/>
<path fill-rule="evenodd" clip-rule="evenodd" fill="none" d="M41.177,9.975c-0.095-0.085-0.202-0.152-0.191-0.178
	c0.043-0.137,0.096-0.288,0.195-0.387c0.05-0.051,0.232,0.201,0.202,0.357C41.37,9.835,41.271,9.887,41.177,9.975z"/>
<path fill-rule="evenodd" clip-rule="evenodd" fill="none" d="M62.115,23.092c0.029,0.148-0.012,0.206-0.18,0.211
	c-0.173,0-0.198-0.062-0.203-0.215c-0.007-0.166,0.051-0.193,0.201-0.195C62.094,22.89,62.15,22.941,62.115,23.092z"/>
<path fill-rule="evenodd" clip-rule="evenodd" fill="none" d="M85.261,22.876c-0.048,0.048-0.094,0.137-0.137,0.137
	c-0.167,0.007-0.26-0.096-0.276-0.258c-0.013-0.165,0.114-0.095,0.191-0.109C85.2,22.622,85.271,22.681,85.261,22.876z"/>
<path fill-rule="evenodd" clip-rule="evenodd" fill="none" d="M97.062,18.894c-0.054-0.205,0.073-0.214,0.207-0.191
	c0.062,0.009,0.157,0.041,0.167,0.08c0.025,0.096-0.167,0.33-0.243,0.303c-0.066-0.021-0.119-0.099-0.179-0.15
	C97.031,18.923,97.046,18.906,97.062,18.894z"/>
<path fill-rule="evenodd" clip-rule="evenodd" fill="none" d="M73.41,23.526c0.009-0.014,0.052-0.093,0.084-0.089
	c0.152,0.02,0.266,0.104,0.257,0.273c-0.007,0.078-0.05,0.191-0.105,0.214C73.542,23.963,73.415,23.765,73.41,23.526z"/>
<path fill-rule="evenodd" clip-rule="evenodd" fill="none" d="M52.432,16.324c-0.043,0.046-0.085,0.131-0.13,0.131
	c-0.175,0.007-0.27-0.102-0.278-0.271c-0.012-0.179,0.133-0.09,0.21-0.106C52.429,16.037,52.405,16.173,52.432,16.324z"/>
<path fill-rule="evenodd" clip-rule="evenodd" fill="none" d="M76.991,13.141c0.139,0.083,0.225,0.114,0.276,0.173
	c0.029,0.031,0.004,0.118-0.012,0.172c-0.023,0.074-0.059,0.141-0.089,0.208c-0.068-0.09-0.152-0.173-0.196-0.275
	C76.943,13.354,76.981,13.265,76.991,13.141z"/>
<path fill-rule="evenodd" clip-rule="evenodd" fill="none" d="M92.429,13c0.05,0.096,0.117,0.185,0.143,0.287
	c0.006,0.042-0.084,0.103-0.132,0.157c-0.079-0.081-0.177-0.154-0.227-0.246c-0.018-0.033,0.086-0.133,0.134-0.199
	C92.373,13,92.403,13,92.429,13z"/>
<path fill-rule="evenodd" clip-rule="evenodd" fill="none" d="M75.84,22.98c-0.095,0.079-0.178,0.172-0.193,0.158
	c-0.091-0.062-0.175-0.137-0.239-0.229c-0.012-0.014,0.137-0.174,0.155-0.164C75.655,22.797,75.729,22.879,75.84,22.98z"/>
<path fill-rule="evenodd" clip-rule="evenodd" fill="none" d="M95.773,26.334c-0.049-0.037-0.107-0.076-0.16-0.119
	c0.086-0.097,0.053-0.286,0.256-0.296c0.196-0.014,0.116,0.126,0.13,0.208C96.026,26.297,95.946,26.341,95.773,26.334z"/>
<path fill-rule="evenodd" clip-rule="evenodd" fill="none" d="M58.065,11.817c-0.046-0.175,0.038-0.223,0.187-0.195
	c0.067,0.016,0.175,0.044,0.183,0.083c0.024,0.108-0.158,0.317-0.249,0.291c-0.062-0.016-0.112-0.089-0.167-0.136
	C58.034,11.844,58.05,11.829,58.065,11.817z"/>
<path fill-rule="evenodd" clip-rule="evenodd" fill="none" d="M96.476,18.526c-0.078-0.105-0.173-0.17-0.18-0.246
	c-0.004-0.068,0.078-0.144,0.123-0.218c0.075,0.096,0.16,0.193,0.227,0.294C96.651,18.367,96.566,18.439,96.476,18.526z"/>
<path fill-rule="evenodd" clip-rule="evenodd" fill="none" d="M52.419,24.594c-0.115,0.154-0.167,0.357-0.354,0.25
	c-0.059-0.031-0.026-0.223-0.035-0.342C52.148,24.532,52.265,24.557,52.419,24.594z"/>
<path fill-rule="evenodd" clip-rule="evenodd" fill="none" d="M93.947,17.967c-0.071-0.074-0.148-0.119-0.172-0.182
	c-0.034-0.099,0.037-0.175,0.135-0.138c0.094,0.032,0.165,0.115,0.246,0.18C94.101,17.865,94.044,17.903,93.947,17.967z"/>
<path fill-rule="evenodd" clip-rule="evenodd" fill="none" d="M64.051,8.393c0.063-0.086,0.105-0.146,0.147-0.207
	c0.062,0.069,0.167,0.14,0.167,0.213c0,0.077-0.1,0.151-0.16,0.224C64.158,8.554,64.112,8.487,64.051,8.393z"/>
<path fill-rule="evenodd" clip-rule="evenodd" fill="none" d="M70.166,23.468c-0.057-0.061-0.134-0.109-0.155-0.173
	c-0.036-0.104,0.032-0.15,0.137-0.144c0.135,0.01,0.235,0.066,0.237,0.207C70.387,23.389,70.276,23.417,70.166,23.468z"/>
<path fill-rule="evenodd" clip-rule="evenodd" fill="none" d="M97.785,7.38c-0.093,0.078-0.165,0.138-0.232,0.196
	c-0.032-0.054-0.11-0.128-0.094-0.163c0.034-0.09,0.111-0.167,0.169-0.247C97.672,7.22,97.711,7.278,97.785,7.38z"/>
<path fill-rule="evenodd" clip-rule="evenodd" fill="none" d="M41.68,14.16c0.193-0.061,0.388-0.118,0.598-0.182
	c-0.071,0.249-0.209,0.3-0.578,0.244C41.692,14.202,41.685,14.179,41.68,14.16z"/>
<path fill-rule="evenodd" clip-rule="evenodd" fill="none" d="M64.23,25.499c-0.002,0.151-0.198,0.32-0.31,0.287
	c-0.034-0.007-0.075-0.136-0.057-0.157c0.07-0.079,0.162-0.146,0.254-0.201C64.139,25.419,64.203,25.477,64.23,25.499z"/>
<path fill-rule="evenodd" clip-rule="evenodd" fill="none" d="M42.646,11.564c0.06-0.095,0.105-0.163,0.15-0.23
	c0.06,0.071,0.16,0.142,0.16,0.214c0,0.07-0.099,0.146-0.155,0.218C42.755,11.709,42.71,11.647,42.646,11.564z"/>
<path fill-rule="evenodd" clip-rule="evenodd" fill="none" d="M47.625,14.297c0.085,0.087,0.152,0.154,0.216,0.218
	c-0.048,0.039-0.114,0.12-0.145,0.108c-0.093-0.036-0.175-0.108-0.262-0.167C47.487,14.413,47.541,14.372,47.625,14.297z"/>
<path fill-rule="evenodd" clip-rule="evenodd" fill="none" d="M75.722,20.952c-0.107-0.028-0.211,0.007-0.203-0.16
	c0.005-0.103,0.043-0.139,0.133-0.134c0.122,0.013,0.248,0.039,0.243,0.192C75.893,20.888,75.781,20.918,75.722,20.952z"/>
<path fill-rule="evenodd" clip-rule="evenodd" fill="none" d="M87.22,22.546c-0.057-0.066-0.121-0.111-0.142-0.175
	c-0.034-0.112,0.039-0.139,0.142-0.134c0.12,0.011,0.236,0.045,0.223,0.189C87.441,22.462,87.325,22.49,87.22,22.546z"/>
<path fill-rule="evenodd" clip-rule="evenodd" fill="none" d="M68.228,25.28c-0.105-0.025-0.209,0.004-0.194-0.162
	c0.009-0.1,0.037-0.134,0.135-0.127c0.13,0.009,0.244,0.044,0.241,0.19C68.408,25.216,68.292,25.247,68.228,25.28z"/>
<path fill-rule="evenodd" clip-rule="evenodd" fill="none" d="M89.635,13.066c-0.023-0.104-0.046-0.171-0.046-0.235
	c-0.003-0.055,0.029-0.109,0.041-0.163c0.052,0.028,0.125,0.044,0.147,0.085c0.023,0.045,0,0.118-0.021,0.173
	C89.741,12.967,89.698,12.997,89.635,13.066z"/>
<path fill-rule="evenodd" clip-rule="evenodd" fill="none" d="M86.095,24.348c-0.023-0.099-0.049-0.157-0.049-0.226
	c0-0.06,0.03-0.118,0.042-0.183c0.047,0.03,0.125,0.044,0.134,0.08c0.021,0.055,0,0.127-0.018,0.188
	C86.191,24.25,86.149,24.283,86.095,24.348z"/>
<path fill-rule="evenodd" clip-rule="evenodd" fill="none" d="M62.312,25.374c0.023,0.054,0.071,0.111,0.06,0.159
	c-0.009,0.042-0.068,0.096-0.116,0.109c-0.099,0.027-0.153-0.025-0.127-0.126c0.014-0.055,0.057-0.097,0.089-0.149
	C62.249,25.372,62.28,25.374,62.312,25.374z"/>
<path fill-rule="evenodd" clip-rule="evenodd" fill="none" d="M78.327,24.059c0.025,0.053,0.058,0.102,0.071,0.155
	c0.022,0.106-0.039,0.12-0.132,0.122c-0.107,0.007-0.139-0.04-0.119-0.13c0.014-0.055,0.055-0.1,0.082-0.15
	C78.264,24.059,78.296,24.059,78.327,24.059z"/>
<path fill-rule="evenodd" clip-rule="evenodd" fill="none" d="M30.739,24.706c0.028,0.043,0.086,0.092,0.079,0.131
	c-0.008,0.052-0.063,0.099-0.098,0.147c-0.045-0.039-0.116-0.07-0.133-0.118c-0.011-0.041,0.041-0.104,0.063-0.156
	C30.679,24.708,30.71,24.708,30.739,24.706z"/>
<path fill-rule="evenodd" clip-rule="evenodd" fill="none" d="M42.894,12.415c-0.021-0.051-0.052-0.099-0.064-0.154
	c-0.021-0.103,0.047-0.144,0.131-0.116c0.05,0.02,0.107,0.084,0.114,0.135c0.007,0.043-0.052,0.096-0.084,0.144
	C42.958,12.421,42.924,12.421,42.894,12.415z"/>
<path fill-rule="evenodd" clip-rule="evenodd" fill="none" d="M48.096,13.629c-0.051,0.03-0.098,0.065-0.151,0.077
	c-0.096,0.021-0.154-0.028-0.122-0.122c0.016-0.052,0.075-0.112,0.123-0.124c0.043-0.007,0.099,0.048,0.15,0.072
	C48.096,13.569,48.096,13.597,48.096,13.629z"/>
<path fill-rule="evenodd" clip-rule="evenodd" fill="none" d="M86.082,21.833c0.021,0.052,0.052,0.1,0.059,0.157
	c0.025,0.103-0.045,0.144-0.127,0.112c-0.053-0.016-0.107-0.082-0.112-0.13c-0.007-0.045,0.053-0.095,0.085-0.144
	C86.015,21.832,86.046,21.832,86.082,21.833z"/>
<path fill-rule="evenodd" clip-rule="evenodd" fill="none" d="M72.069,23.835c-0.032-0.05-0.091-0.109-0.081-0.147
	c0.012-0.051,0.081-0.085,0.123-0.128c0.039,0.045,0.101,0.087,0.114,0.139c0.009,0.034-0.043,0.09-0.07,0.134
	C72.125,23.833,72.096,23.833,72.069,23.835z"/>
<path fill-rule="evenodd" clip-rule="evenodd" fill="none" d="M60.909,26.462c-0.03-0.044-0.092-0.1-0.085-0.144
	c0.005-0.049,0.063-0.112,0.113-0.131c0.085-0.029,0.151,0.01,0.13,0.115c-0.012,0.052-0.041,0.102-0.061,0.154
	C60.973,26.459,60.942,26.462,60.909,26.462z"/>
<path fill-rule="evenodd" clip-rule="evenodd" fill="none" d="M79.116,12.098c-0.07,0.039-0.118,0.086-0.153,0.08
	c-0.049-0.013-0.126-0.073-0.122-0.103c0.007-0.06,0.063-0.112,0.102-0.166C78.991,11.963,79.043,12.019,79.116,12.098z"/>
<path fill-rule="evenodd" clip-rule="evenodd" fill="none" d="M79.868,23.89c-0.051,0.057-0.08,0.094-0.112,0.128
	c-0.048-0.064-0.104-0.125-0.135-0.196c-0.009-0.016,0.066-0.065,0.105-0.103C79.77,23.772,79.813,23.822,79.868,23.89z"/>
<path fill-rule="evenodd" clip-rule="evenodd" fill="none" d="M59.88,8.339c-0.054,0.081-0.104,0.154-0.152,0.23
	c-0.018-0.038-0.064-0.089-0.056-0.115c0.032-0.076,0.086-0.144,0.13-0.214C59.827,8.273,59.849,8.301,59.88,8.339z"/>
<path fill-rule="evenodd" clip-rule="evenodd" fill="none" d="M96.419,24.375c-0.053,0.029-0.107,0.085-0.153,0.08
	c-0.044-0.003-0.106-0.06-0.122-0.107c-0.032-0.093,0.022-0.146,0.122-0.124c0.052,0.01,0.097,0.043,0.146,0.064
	C96.414,24.318,96.416,24.348,96.419,24.375z"/>
<path fill-rule="evenodd" clip-rule="evenodd" fill="none" d="M57.682,6.409c-0.054,0.026-0.108,0.079-0.156,0.073
	c-0.046-0.007-0.123-0.086-0.113-0.111c0.016-0.051,0.073-0.112,0.125-0.125c0.036-0.009,0.094,0.047,0.14,0.077
	C57.681,6.352,57.681,6.38,57.682,6.409z"/>
<path fill-rule="evenodd" clip-rule="evenodd" fill="none" d="M57.555,25.374c-0.087,0.046-0.136,0.079-0.194,0.093
	c-0.017,0.002-0.049-0.059-0.075-0.091c0.042-0.027,0.079-0.073,0.123-0.082C57.441,25.286,57.482,25.333,57.555,25.374z"/>
<path fill-rule="evenodd" clip-rule="evenodd" fill="none" d="M74.751,23.138c-0.08,0.046-0.129,0.087-0.187,0.101
	c-0.02,0.002-0.055-0.055-0.084-0.087c0.043-0.036,0.08-0.084,0.13-0.093C74.64,23.057,74.685,23.099,74.751,23.138z"/>
<path fill-rule="evenodd" clip-rule="evenodd" fill="none" d="M78.962,24.914c0.064,0.008,0.135,0.016,0.199,0.029
	c0.009,0.002,0.007,0.057,0.009,0.089c-0.073-0.014-0.147-0.024-0.22-0.036C78.954,24.97,78.959,24.943,78.962,24.914z"/>
<path fill-rule="evenodd" clip-rule="evenodd" fill="none" d="M40.229,6.025c0.061,0.003,0.128,0,0.187,0.017
	c0.013,0.002,0.012,0.069,0.017,0.105c-0.071-0.017-0.144-0.032-0.215-0.049C40.222,6.074,40.225,6.047,40.229,6.025z"/>
<path fill-rule="evenodd" clip-rule="evenodd" stroke="#000000" stroke-width="0.25" stroke-miterlimit="10" d="M38.697,17.586
	c-0.014,0.63-0.212,1.125-0.7,1.467c-0.61,0.429-1.452,0.308-1.968-0.271c-0.552-0.621-0.569-1.688-0.021-2.312
	c0.402-0.462,0.917-0.625,1.503-0.472c0.628,0.17,0.991,0.617,1.136,1.24C38.68,17.366,38.686,17.5,38.697,17.586z"/>
<path fill-rule="evenodd" clip-rule="evenodd" stroke="#000000" stroke-width="0.25" stroke-miterlimit="10" d="M81.018,17.148
	c-0.71,0-1.423-0.006-2.132,0.004c-0.184,0.003-0.2-0.048-0.166-0.215c0.135-0.658,0.399-1.24,0.916-1.689
	c0.918-0.8,2.708-0.732,3.398,0.715c0.146,0.304,0.21,0.649,0.315,0.975c0.052,0.167,0,0.218-0.178,0.215
	C82.453,17.142,81.735,17.148,81.018,17.148z"/>
<path fill-rule="evenodd" clip-rule="evenodd" stroke="#000000" stroke-width="0.25" stroke-miterlimit="10" d="M62.098,20.454
	c-0.811-0.438-1.299-1.109-1.476-1.992c-0.203-1.03-0.03-1.989,0.706-2.771c1.337-1.422,3.72-0.973,4.51,0.837
	c0.518,1.192,0.269,2.644-0.638,3.497c-0.735,0.693-1.624,0.838-2.592,0.617c-0.093-0.02-0.13-0.047-0.096-0.154
	c0.018-0.054,0.013-0.133-0.016-0.184c-0.049-0.083-0.121-0.154-0.187-0.23c-0.046,0.057-0.098,0.115-0.137,0.179
	C62.142,20.306,62.13,20.371,62.098,20.454z M64.532,18.354c0.334-0.003,0.605-0.275,0.587-0.576
	c-0.002-0.029-0.025-0.073-0.045-0.077c-0.221-0.024-0.444-0.067-0.665-0.06c-0.2,0.004-0.257,0.131-0.173,0.319
	c0.036,0.081,0.116,0.161,0.116,0.24C64.35,18.367,64.44,18.36,64.532,18.354z M62.433,19.782c0.051,0,0.098,0,0.148,0
	c0.203,0,0.246-0.054,0.199-0.249c-0.049-0.204-0.258-0.313-0.522-0.285c-0.234,0.026-0.093,0.205-0.131,0.308
	c-0.005,0.012,0.002,0.028,0,0.041c-0.025,0.147,0.031,0.212,0.182,0.185C62.349,19.776,62.393,19.782,62.433,19.782z
	 M64.462,17.215c0.014,0.229,0.096,0.276,0.294,0.17c0.152-0.083,0.257-0.29,0.187-0.444c-0.03-0.072-0.127-0.143-0.209-0.163
	c-0.05-0.009-0.148,0.06-0.18,0.122C64.504,16.996,64.493,17.11,64.462,17.215z M64.465,19.386c0.055-0.032,0.086-0.055,0.118-0.076
	c-0.048-0.036-0.089-0.078-0.143-0.106c-0.012-0.003-0.05,0.042-0.078,0.064C64.397,19.307,64.427,19.345,64.465,19.386z"/>
<path fill-rule="evenodd" clip-rule="evenodd" fill="none" d="M64.532,18.354c-0.091,0.006-0.182,0.013-0.18-0.154
	c0-0.08-0.08-0.159-0.116-0.24c-0.084-0.188-0.027-0.315,0.173-0.319c0.221-0.007,0.444,0.036,0.665,0.06
	c0.02,0.004,0.043,0.048,0.045,0.077C65.137,18.079,64.866,18.351,64.532,18.354z"/>
<path fill-rule="evenodd" clip-rule="evenodd" fill="none" d="M62.433,19.782c-0.041,0-0.084-0.005-0.125,0
	c-0.151,0.027-0.208-0.038-0.182-0.185c0.002-0.012-0.005-0.029,0-0.041c0.038-0.103-0.103-0.282,0.131-0.308
	c0.264-0.028,0.474,0.081,0.522,0.285c0.047,0.195,0.004,0.249-0.199,0.249C62.531,19.782,62.484,19.782,62.433,19.782z"/>
<path fill-rule="evenodd" clip-rule="evenodd" fill="none" d="M64.462,17.215c0.03-0.104,0.042-0.219,0.091-0.315
	c0.032-0.062,0.13-0.131,0.18-0.122c0.082,0.02,0.18,0.09,0.209,0.163c0.07,0.154-0.034,0.361-0.187,0.444
	C64.559,17.491,64.477,17.443,64.462,17.215z"/>
<path fill-rule="evenodd" clip-rule="evenodd" fill="none" d="M64.465,19.386c-0.039-0.041-0.068-0.079-0.103-0.118
	c0.027-0.021,0.066-0.067,0.078-0.064c0.054,0.029,0.095,0.071,0.143,0.106C64.552,19.331,64.52,19.354,64.465,19.386z"/>
</svg>
